<?xml version="1.0" encoding="UTF-8"?>
<!DOCTYPE svg PUBLIC "-//W3C//DTD SVG 1.1//EN" "http://www.w3.org/Graphics/SVG/1.1/DTD/svg11.dtd">
<!-- Creator: CorelDRAW -->
<svg xmlns="http://www.w3.org/2000/svg" xml:space="preserve" width="31.2039in" height="21.299in" version="1.1" style="shape-rendering:geometricPrecision; text-rendering:geometricPrecision; image-rendering:optimizeQuality; fill-rule:evenodd; clip-rule:evenodd"
viewBox="0 0 31950.78 21808.83"
 xmlns:xlink="http://www.w3.org/1999/xlink"
 xmlns:xodm="http://www.corel.com/coreldraw/odm/2003">
 <defs>
  <style type="text/css">
   <![CDATA[
    .fil6 {fill:#FEFEFE;fill-rule:nonzero}
    .fil3 {fill:#FBCB30;fill-rule:nonzero}
    .fil2 {fill:#C23541;fill-rule:nonzero}
    .fil5 {fill:#BD3440;fill-rule:nonzero}
    .fil4 {fill:#363435;fill-rule:nonzero}
    .fil1 {fill:#343F6B;fill-rule:nonzero}
    .fil0 {fill:#353E6A;fill-rule:nonzero}
   ]]>
  </style>
 </defs>
 <g id="Layer_x0020_1">
  <metadata id="CorelCorpID_0Corel-Layer"/>
  <path class="fil0" d="M31159.34 13581.53c17.25,-632.64 56.49,-1527.48 55.74,-2114.81 -221.94,-135.34 -479.62,-229.99 -845.78,-437.81 -1216.39,-690.12 -1070.3,-160.68 -1317.11,-784.72 591.2,-467.03 89.37,140.39 1352.85,346.96l-361.08 -330.17c-134.92,-110.95 -56.03,-23.54 -240.16,-180.76 -182.08,-155.51 -214.24,-216.04 -339.74,-381.88 629.91,-410.69 971.48,402.67 1777.52,1068.4 11.5,-140.61 27.75,-281.01 48.74,-421.17 -361.9,-119.36 -279.18,-150.61 -656.08,-537.03 -1651.88,-1693.77 -752.06,-560.15 -2455.32,102.27 -792.13,0.87 -1597.24,-2443.18 -2159.48,-2558.55 -1236.73,183.41 -2059.59,1726.38 -3000.5,2227.88 -665.4,-2079.54 -1381.25,268.71 -1847.43,515.64 -1025.18,542.81 -559.78,-877.95 -2489.71,1459 -1839.23,1830.51 -2384.77,1684.37 -3128.5,2292.54l-916.94 683.58c66.43,-0.72 140.54,-10.13 224.3,-31.34 965.1,-243.94 2661.92,-1619.46 3906.92,-1699.84 -47.81,1197.33 -488.69,555.06 -759.55,1458.31 622.84,-81.53 1375.55,-794.8 1550.31,-1415.34 221.14,-785.33 -117.1,-1323.34 662.21,-1795.24 -110.55,693.03 -565.98,377.06 22.19,1479.87 1326.39,2486.89 1530.46,1433.83 1236.89,833.56 -221.25,-452.31 -297.6,-423.74 -350.46,-968.33 437.74,345.89 872,-93.82 889.97,-907.84 23.88,-1079.92 -612.01,-838.06 -608.46,-1415.11 169.4,-236.94 1826.28,1650.62 2001.36,2127.48 7.49,-10.65 607.52,11.49 -77.03,-862.44 -332.72,-424.71 -1416.24,-1357.6 -1118.79,-2134.32 617.09,199.17 620.32,699.56 1077.55,1207.49 390.75,433.99 793.84,613.72 1231.23,1075.65 611.27,645.68 621.32,1014.57 1087.93,1886.46l659.16 987.23c534.73,-322.97 521.59,213.17 747.88,-370.31 248.11,495.2 193,-66.01 689.07,82.88 190.48,-1373.5 -727.36,-468.05 -995.82,-1642.1 555.78,-255.78 816.06,184.8 1618.51,590.07 -652.14,-1419.59 -2119.93,-806.32 -2454.65,-2134.5 361.58,210.37 286.7,320.89 701.57,179.88 -261.43,-861.05 -959.7,-913.24 -1204.97,-1678.94 1004.79,195.58 447.94,515.42 1385.37,884.18 -462.43,-1009.47 -2.9,-271.36 -639.39,-1214.42 -198.85,-294.52 -342.83,-630.81 -260.2,-1095.67 714.49,891.84 -45.96,507.82 1229.19,1480.5 512.74,391.15 715.59,1028.88 1126.51,1457.18 684.82,713.69 755.71,301.04 1151.15,1553.72 177.08,561.08 142.67,1060.78 324.77,1359.83l158.03 -187.7c167.49,323.71 133.54,473.07 489.23,479.1 553.36,-570.38 136.47,337.78 364.9,-235.64 156.71,51.71 246.19,-371.54 456.13,-283.68z"/>
  <path class="fil0" d="M142.94 13558.09c-17.29,-633.93 -56.6,-1530.6 -55.85,-2119.13 222.39,-135.62 480.61,-230.47 847.51,-438.71 1218.88,-691.53 1072.49,-161.01 1319.8,-786.33 -592.41,-467.98 -89.56,140.68 -1355.62,347.67l361.82 -330.84c135.19,-111.18 56.15,-23.59 240.65,-181.12 182.45,-155.83 214.68,-216.49 340.43,-382.66 -631.2,-411.53 -973.46,403.49 -1781.15,1070.59 -11.52,-140.9 -27.8,-281.58 -48.83,-422.03 362.65,-119.61 279.75,-150.92 657.42,-538.13 1655.25,-1697.23 753.6,-561.3 2460.34,102.49 793.74,0.87 1600.51,-2448.18 2163.89,-2563.78 1239.26,183.78 2063.8,1729.91 3006.64,2232.43 666.76,-2083.79 1384.07,269.25 1851.2,516.7 1027.28,543.92 560.93,-879.74 2494.8,1461.99 1842.99,1834.25 2389.64,1687.81 3134.9,2297.22l918.82 684.98c-66.57,-0.73 -140.83,-10.15 -224.76,-31.41 -967.07,-244.43 -2667.35,-1622.77 -3914.9,-1703.32 47.91,1199.77 489.69,556.19 761.11,1461.29 -624.11,-81.7 -1378.36,-796.43 -1553.47,-1418.23 -221.6,-786.93 117.33,-1326.05 -663.57,-1798.92 110.78,694.45 567.14,377.83 -22.23,1482.9 -1329.1,2491.98 -1533.59,1436.77 -1239.42,835.27 221.7,-453.24 298.21,-424.61 351.18,-970.31 -438.64,346.59 -873.79,-94.02 -891.79,-909.69 -23.93,-1082.13 613.26,-839.78 609.71,-1418 -169.75,-237.43 -1830.01,1654 -2005.46,2131.83 -7.51,-10.67 -608.76,11.52 77.19,-864.2 333.4,-425.58 1419.13,-1360.38 1121.08,-2138.68 -618.35,199.57 -621.58,701 -1079.75,1209.96 -391.55,434.87 -795.47,614.97 -1233.75,1077.85 -612.52,647 -622.59,1016.64 -1090.15,1890.32l-660.5 989.25c-535.82,-323.63 -522.66,213.6 -749.41,-371.07 -248.63,496.21 -193.4,-66.14 -690.48,83.05 -190.87,-1376.3 728.85,-469.01 997.85,-1645.46 -556.92,-256.3 -817.73,185.18 -1621.82,591.28 653.47,-1422.49 2124.26,-807.96 2459.66,-2138.86 -362.32,210.8 -287.29,321.55 -703,180.24 261.96,-862.81 961.66,-915.1 1207.42,-1682.37 -1006.84,195.97 -448.85,516.47 -1388.2,885.99 463.38,-1011.53 2.9,-271.92 640.7,-1216.9 199.26,-295.13 343.53,-632.1 260.73,-1097.91 -715.95,893.67 46.06,508.86 -1231.7,1483.52 -513.79,391.95 -717.06,1030.99 -1128.82,1460.15 -686.22,715.15 -757.25,301.66 -1153.5,1556.9 -177.44,562.22 -142.96,1062.94 -325.43,1362.61l-158.36 -188.08c-167.83,324.37 -133.81,474.04 -490.23,480.08 -554.49,-571.55 -136.75,338.47 -365.65,-236.12 -157.04,51.82 -246.69,-372.29 -457.07,-284.26z"/>
  <path class="fil1" d="M10866.07 17643.51c-1563.98,-632.65 -2787.92,-1747.8 -3569.83,-3104.3l-312.88 0c78.42,157.66 161.51,313.05 249.53,465.77l-3445.47 0c72.17,15.71 144.34,30.87 216.51,45.49 -98.79,-14.19 -197.57,-29.35 -296.33,-45.49l-316.77 0c279.12,54.84 558.33,101.62 837.62,140.83 -29.84,-1.01 -59.62,-2.18 -89.43,-3.32 -259.29,-33.37 -518.64,-73.82 -777.65,-121.04 0.03,3.98 0.1,8.07 0.16,12.08 -44,-9.3 -88.02,-18.81 -132.03,-28.55l-394.44 0c146.42,39.15 292.93,75.88 439.53,110.29 -59.31,-9.53 -118.68,-19.62 -177.92,-29.84 0.03,3.53 0.03,7.32 0.03,10.88 -130.2,-28.56 -260.41,-58.98 -390.61,-91.33l-166.87 0c-175.88,-50.67 -351.69,-104.49 -527.37,-162 0.21,-9.59 0.4,-19.24 0.59,-28.81 -273.33,-82.59 -546.67,-174.07 -820.01,-274.96l-0.02 0 -112.6 0c831.27,334.78 1665.55,582.87 2502.02,756.45 -493.77,-42.47 -986.13,-108.55 -1476.57,-202.57 0.03,2.11 0.09,4.1 0.12,6.12 -228.31,-52.18 -456.37,-110.42 -684.14,-174.99 -0.02,-0.04 -0.04,0 -0.08,-0.06 0.45,20.84 0.89,41.7 1.34,62.59 425.72,124.8 851.43,227.23 1277.16,309.03 -0.13,1.95 -0.25,3.91 -0.37,5.93 -15.27,-3.28 -30.61,-6.5 -45.84,-9.78 -36.79,-7.82 -73.57,-15.93 -110.35,-24.1 36.43,14.45 72.84,28.74 109.24,42.81 393.09,152.57 795.57,271.94 1188.63,362.83 47.06,12.91 94.13,25.31 141.21,37.61 -264.62,-40.89 -529.21,-89.03 -793.84,-144.58 0.04,5.04 0.1,10.09 0.13,15.11 -691.99,-138.56 -1382.86,-329.14 -2071.07,-578.74 0.12,9.74 0.25,19.5 0.38,29.25 716.97,276.58 1433.93,487.91 2150.92,643.6 141.67,35.64 283.07,68.87 424.65,99.82 -7.54,-0.51 -15.04,-1.17 -22.55,-1.67 -82.94,-10.48 -165.78,-21.93 -248.72,-33.94 0.41,9.77 0.79,19.59 1.2,29.34 66.08,13.43 132.43,26.46 198.59,38.95 0,0.92 0.03,1.83 0.03,2.81 83.76,19.72 167.64,38.37 251.43,56.41 -78.61,-8.86 -157.29,-18.58 -235.85,-28.62 -17.19,-2.14 -34.38,-4.48 -51.6,-6.69 12.49,6.35 24.95,12.69 37.44,19.03 -168.93,-27.92 -337.93,-59.03 -506.68,-92.85 0.03,9.72 0.09,19.44 0.12,29.15 55.59,13.67 111.77,26.88 167.36,39.81 -51.17,-10.76 -102.37,-21.67 -153.73,-33.19 -134.55,-30.98 -269.14,-63.91 -403.72,-98.91 -0.03,1.17 -0.09,2.31 -0.12,3.51 -814.31,-204.9 -1650.26,-489.43 -2511.68,-884.62 -71.34,-32.75 -142.84,-66.16 -214.52,-100.41 -0.12,9.65 -0.23,19.27 -0.34,28.99 74.05,36.97 147.81,73 221.36,108.3 898.48,431.12 1760.72,737.27 2593.83,958.34 -0.1,5.37 -0.16,10.73 -0.25,16.1 301.84,83.24 603.98,155.65 906.23,218.27 -96.57,-9.78 -193.17,-20.5 -289.61,-32.11 0.22,10.66 0.4,21.48 0.62,32.17 -40.76,-6.71 -81.46,-13.65 -122.24,-20.79 0.04,7.48 0.06,14.96 0.06,22.4 -195.31,-36.37 -390.62,-76.88 -585.97,-121.71 0,0.12 0,0.19 0,0.22 -161.99,-38.2 -323.93,-79.29 -485.64,-123.48 0.1,20.73 0.19,41.49 0.28,62.18 203.11,57.73 406.34,109.75 609.57,156.98 -343.33,-37.01 -684.9,-77.69 -1023.81,-120.83 -32.51,-4.1 -65.02,-8.38 -97.55,-12.77 33.2,14.23 66.41,28.17 99.62,42.11 659.2,275.73 1320.15,496.56 1982.65,668.84 -134.24,-22.39 -268.44,-46.47 -402.45,-72.56 0.03,13.63 0.03,27.19 0.03,40.82 64.26,13.38 128.62,26 192.88,38.46 0,0.42 0,0.81 0,1.23 169.28,40.07 338.63,76.69 508.1,110.21 175.66,34.7 351.38,65.96 527.23,93.98 -258.61,-10.72 -517.04,-27.51 -775.26,-50.26 -182.44,-16.09 -364.75,-35.05 -546.94,-57.35 0.1,13.63 0.19,27.15 0.31,40.82 89.76,22.72 179.51,44.44 269.26,65.43 439.61,102.72 879.23,185.03 1318.85,248.94 -561.27,-35.14 -1122.08,-95.36 -1682.15,-184.87 -251.03,-40.09 -501.89,-86.05 -752.57,-138.33 0,9.59 0,19.37 0,29.03 163.61,55.67 325.79,107.63 486.65,156.19 350.56,105.78 694.8,195.25 1033.29,270.96 -443.66,-52.68 -887.03,-125.02 -1330.12,-218.63 -477.19,-100.79 -954.03,-226.35 -1430.55,-379.74 0.15,20.76 0.27,41.49 0.41,62.28 23.97,9.24 48.5,18.64 72.46,27.67 0,6.5 0,12.9 0,19.28 333.54,124.51 667.17,235.3 1001.01,333.43 340.31,100 680.8,186.82 1021.54,261.4 0.06,4.55 0.12,9.08 0.19,13.63 147.23,27.54 294.87,53.1 442.17,76.24 132.03,24.84 263.58,47.74 395.64,69.07 0.03,1.32 0.07,2.71 0.07,4.2 25.24,2.64 50.57,5.24 75.8,7.84 227.72,35.62 455.71,66.39 683.57,92.15 -92.09,-3.22 -184.17,-7.29 -276.2,-11.45 0.31,13.67 0.67,27.26 0.98,40.92 284.24,12.91 568.86,21.42 853.73,25.43 30,2.3 59.94,4.54 89.91,6.69 -121.33,3.98 -242.69,6.38 -364.03,7.82 0.51,9.66 0.98,19.43 1.46,29.12 202.85,22.43 405.35,40.86 608.33,55.52 -133.48,-2.39 -267.11,-6.3 -400.47,-11.8 0.12,9.71 0.29,19.44 0.45,29.15 57.92,4.6 115.97,8.9 173.92,12.88 -0.25,13.28 -0.54,26.55 -0.79,39.9 122.57,19.97 245.38,38.49 368.07,55.46 -316.48,-4.14 -632.97,-17 -949.49,-39.18 0.06,13.53 0.09,27.26 0.12,40.82 314.69,33.6 629.37,57.86 944.06,73.66 -297.46,30.56 -594.8,55.05 -891.91,73.51 -275.95,-21.33 -551.83,-49.88 -827.4,-85.53 -0.03,9.75 -0.1,19.33 -0.13,29.12 73.95,12.53 148.31,24.45 222.28,35.93 -263.86,-24.93 -528.07,-56.66 -791.68,-95.81 0.38,9.78 0.73,19.57 1.1,29.34 268.19,45.71 536.34,83.89 804.53,114.96 -70.95,2.33 -141.88,4.2 -212.79,5.71 -287.5,-42.99 -574.99,-94.3 -862.48,-154.43 -0.22,9.62 -0.44,19.34 -0.66,28.99 218.25,48.05 436.65,90.86 655.11,128.62 -293.01,3.06 -585.8,-0.85 -878.41,-12.15 0.82,20.82 1.64,41.71 2.46,62.5 446.52,64.95 893.68,109.49 1341.06,135.62 -188.44,-1.95 -376.68,-6.82 -564.71,-14.19 0.73,9.75 1.42,19.56 2.15,29.31 235.26,44.29 471.2,83.13 707.49,116.47 -0.03,3.25 -0.06,6.53 -0.09,9.75 -912.58,-79.5 -1824.21,-233.65 -2732.99,-479.52 -0.04,9.69 -0.04,19.34 -0.07,29.09 156.13,56.88 312.72,110.95 469.14,162.13 -341.15,-86.79 -685.52,-187.53 -1032.26,-303.64 0.15,9.62 0.27,19.56 0.41,29.27 874.52,321.57 1718.35,538.05 2538.14,681.78 76.69,16.5 153.61,32.52 230.37,47.77 -231.66,-5.46 -463.16,-15.36 -694.53,-30.13 -260.14,-52.06 -520.32,-111.42 -780.48,-178.46 -0.03,9.68 -0.07,19.43 -0.09,29.09 179.5,47.64 359.23,91.74 539.02,132.25 -121.94,-9.56 -243.85,-20.48 -365.67,-32.62 0.76,20.88 1.51,41.67 2.25,62.56 426.61,67.38 853.54,115.62 1280.73,146.79 143.54,23.13 287.11,44.01 430.81,63.03 -0.09,17.81 -0.22,35.6 -0.35,53.35 172.73,32.11 345.55,61.34 518.36,87.49 -364.22,-29.34 -728.34,-72.09 -1092.24,-129.41 0.04,9.75 0.07,19.4 0.07,29.15 607.7,102.88 1216.03,165.72 1824.81,194.58 189.06,20.04 378.19,36.79 567.38,50.54 -0.35,6.78 -0.7,13.69 -1.08,20.48 -1012.58,25.33 -2023.21,-25.43 -3030.71,-176.58 0.16,9.69 0.32,19.47 0.48,29.18 330.65,80.89 661.93,149.08 993.06,204.77 -1040.24,-144.61 -2076.3,-397.87 -3107.66,-783.16 -0.09,9.65 -0.16,19.33 -0.25,29.02 1417.09,547.1 2836.56,837.56 4259.11,941.26 -1274.4,-71.75 -2546.39,-285.6 -3814.58,-690.8 -0.1,9.65 -0.21,19.37 -0.31,29.03 369.58,136.5 739.22,254.97 1109.37,356.51 0.1,9.28 0.19,18.58 0.28,27.88 1445.17,402.78 2893.9,562.79 4344.8,554.62 -123.75,30.09 -247.45,59.4 -371.12,87.72 0.45,10.23 0.89,20.49 1.29,30.67 -13.09,0.64 -26.22,1.24 -39.33,1.82 0.09,20.76 0.19,41.5 0.27,62.15 311.53,4.73 622.97,1.33 934.92,-9.33 -133.29,41.95 -267.11,83.25 -400.31,123.5 -667.61,58.55 -1335.25,87.77 -2001.19,80.71 0.06,20.72 0.16,41.38 0.25,62.11 379.96,48.84 760.01,83.38 1140.6,105.09 -522.55,142.75 -1044.16,270.43 -1565.1,379.54 1,20.67 2.05,41.36 3.06,61.96 215.94,22.89 432.05,41.1 648.14,54.82 -21.1,3.13 -42.24,6.29 -63.38,9.43 0.4,20.58 0.81,41.34 1.23,61.96 3790.7,626.83 7612.55,-321.22 11425.08,-1450.02 -356.08,148.74 -712.12,294.41 -1067.98,435.48 -208.81,78.65 -417.37,158.75 -625.84,239.01 -1454.03,390.62 -2908.09,763.79 -4362.11,1041.52 -0.04,0 -0.06,-0.04 -0.1,0.02 0.1,20.7 0.19,41.36 0.29,62.06 1325.06,-239.3 2650.11,-557.64 3975.18,-896.45 0.06,1.51 0.12,2.99 0.19,4.45 12.88,-4.73 25.78,-9.6 38.65,-14.4 494.54,-126.59 989.08,-256.04 1483.62,-384.94 -191.05,73.38 -382.01,147.62 -572.94,222.1 -2795.71,824.3 -5591.43,1620.92 -8387.14,1836.66 0,20.7 0.03,41.4 0.03,62.09 2042.8,21.51 4146.96,-404.06 6364.26,-1098.27 -304.6,120.96 -608.68,241.52 -912.71,360.85 0.64,20.54 1.27,41.05 1.89,61.61 3957.07,-961.86 7959.74,-2517.12 11924.96,-3052.53 934.15,-50.96 1868.31,-38.94 2802.46,56.75 0.02,-20.66 0.09,-41.42 0.15,-62.11 -481.76,-67.01 -963.53,-111.69 -1445.29,-137.05 186.76,-13.53 373.71,-24.54 560.29,-32.69 -0.41,-20.7 -0.83,-41.43 -1.21,-62.12 -517.91,-19.53 -1035.83,-15.26 -1553.74,9.21 0,-12.55 -0.03,-25.3 -0.06,-37.89 -1109.82,-8.38 -2219.66,75.88 -3329.47,218.32 1142.63,-216.95 2284.17,-384.63 3423.7,-465.17 977.18,4.89 1952.93,105.72 2925.91,325.51 0.51,-20.6 0.98,-41.24 1.48,-61.87 -727.93,-164.49 -1457.37,-262.34 -2187.83,-303.36 647.99,-23.5 1295.31,-16 1941.6,28.27 -0.25,-20.79 -0.48,-41.46 -0.7,-62.21 -1481.28,-192.79 -2967.77,-131.46 -4455.74,103.03 -716.42,75.37 -1433.21,194.58 -2149.82,348.5 170.15,-61.23 341.06,-121.96 513.41,-182.37 624.62,-167.51 1249.01,-323.83 1871.92,-462.46 -0.1,-13.5 -0.2,-26.87 -0.29,-40.37 794.59,-76.69 1589.15,-113.51 2383.74,-97.86 0.25,-20.69 0.47,-41.4 0.69,-62.09 -479.02,-47.06 -959.42,-75.02 -1440.68,-86.03 1849.07,-170.61 3698.13,-98.24 5547.17,377.15 0.19,-20.72 0.31,-41.26 0.48,-61.93 -961.22,-372.45 -1925,-630.16 -2889.76,-794.48 916.52,90.25 1832.57,255.82 2746.68,515.36 0.03,-20.64 0.07,-41.36 0.07,-62.09 -1067.19,-317.53 -2138.75,-503.37 -3214.54,-584.13 215.47,-35.81 433.08,-68.24 652.75,-96.76 156.51,11.26 312.99,24.92 469.4,40.76 -0.29,-9.72 -0.58,-19.5 -0.86,-29.24 -125.21,-16.37 -250.42,-31.26 -375.64,-44.64 -0.75,-13.69 -1.48,-27.38 -2.21,-41.02 -131.99,-0.25 -264.05,0.79 -396.08,3.54 -865.06,-70.7 -1730.13,-72.22 -2595.2,-20.83 -27.15,1.3 -54.35,2.59 -81.51,4.01 -654.33,5.34 -1309.8,43.67 -1966.39,108.75 163.44,-24.83 326.48,-48.36 489.74,-70.57 0.25,-9.75 0.5,-19.47 0.76,-29.21 -390.94,27.04 -782.57,64.86 -1174.61,111.05 226.73,-41.59 453.44,-80.73 680.04,-117.33 1249.97,-198.72 2499.95,-314.12 3749.9,-296.9 0.03,0.04 0.06,0.04 0.12,0 -0.19,-7.13 -0.37,-14.44 -0.56,-21.58 165.08,0.73 329.61,3.75 494.6,9.21 -0.02,-1.35 -0.06,-2.87 -0.06,-4.2 300.02,27.54 599.88,63.39 899.61,108.3 0.22,-20.69 0.44,-41.36 0.66,-62.02 0,-0.04 0,-0.04 -0.03,-0.04 -0.95,-0.12 -1.29,-0.22 -2.25,-0.31 -33.43,-5.08 -66.9,-10 -100.38,-14.92 590.98,51.36 1200.22,136.51 1830.11,268.82 0.21,-9.56 0.41,-19.31 0.6,-28.96 -22.11,-6.53 -44.8,-13.06 -66.91,-19.5 582.53,134.95 1165.03,307.46 1747.71,522.46 0,-9.62 0.31,-19.31 0.31,-28.93 -1278.34,-506.97 -2556.74,-808.98 -3835.14,-958.92 1234.71,89.63 2466.9,315.73 3696.96,724.05 -0.31,-9.78 -0.31,-19.53 -0.63,-29.28 -541.36,-197.68 -1082.74,-358.45 -1625.17,-486.27 196.73,38.04 393.59,80.04 590.01,126 0,-9.69 0,-19.37 0,-29.09 -207.69,-66 -415.3,-126.88 -623.13,-182.82 139.15,1.16 276.64,-1.2 411.6,-8.74 24.58,-1.39 49.12,-2.68 73.7,-3.92 -26.22,-8.51 -52.37,-17.1 -78.55,-25.52 -119.57,-38.39 -239.32,-74.74 -358.99,-109.69 127.55,24.1 255.23,50.57 382.71,78.08 0.21,-20.53 0.44,-41.3 0.67,-61.86 -53.03,-19.87 -106.48,-39.59 -159.51,-58.8 15.46,2.27 30.91,4.89 46.37,7.32 0,-20.66 -0.03,-41.38 -0.03,-62.09 -192.69,-66.27 -385.58,-127.83 -578.43,-184.8 0,-1.64 -0.03,-3.38 -0.03,-5.08 -11.26,-2.93 -22.49,-5.65 -33.75,-8.58 -0.03,-9.46 -0.1,-19 -0.16,-28.52 130.48,14.79 261.02,31.36 391.41,49.21 598.36,107.33 1211.11,243.74 1809.25,395.42 55.53,14 111.05,28.4 166.25,43.22 -55.83,-24.65 -111.99,-48.94 -167.82,-72.78 -23.35,-9.94 -46.69,-19.75 -69.72,-29.47 -0.32,-3.16 -0.63,-6.47 -0.63,-9.69 301.59,115.28 602.88,241.72 903.51,379.87 0.32,-20.54 0.95,-41.07 1.27,-61.55 -901.31,-507.73 -1806.66,-909.39 -2715.33,-1214.35 75.43,13.82 150.99,28.73 226.32,43.84 16.6,3.32 33.19,6.66 49.78,10.04 -3.09,-2.65 -6.21,-5.21 -9.27,-7.82 80.45,17.28 160.96,35.49 241.37,54.08 282.79,77.29 565.71,163.66 848.37,259.89 0.31,-20.58 0.31,-41.27 0.64,-61.9 -50.17,-20.03 -100.64,-39.87 -151.11,-59.21 0,-6.68 0,-13.34 0,-20.03 -173.51,-66.09 -347.4,-127.93 -521.2,-186.1 285.29,46.44 570.11,99.37 853.71,157.93 -0.95,-9.94 -2.21,-20.07 -3.15,-29.97 -489.65,-170.21 -979.37,-310.93 -1469.08,-424.98 -20.53,-7.2 -41.07,-14.23 -61.61,-21.36l-9351.42 0c-1781.68,3095.41 -5618.02,4481.58 -9022.73,3104.3zm-8247.93 -2983.12c-139.92,-36.5 -279.84,-75.24 -419.76,-116.3 -0.13,6.38 -0.29,12.72 -0.41,19.03 80.78,26.51 161.56,52.23 242.36,77.18 59.26,6.98 118.53,13.68 177.82,20.09zm36.72 134.08c-135.2,-32.11 -270.37,-66.21 -405.49,-102.36 -13.95,-2.46 -27.9,-4.92 -41.84,-7.41l-0.1 -3.88c-163.19,-44.17 -326.32,-91.34 -489.4,-141.62 0,0 0,0 -0.02,0l-111.29 0 0.02 0c258.29,84.87 516.7,161.88 775.21,231.43l-0.58 -8.64c91.13,11.49 182.29,22.29 273.48,32.47zm41.11 56.98c95.54,23.49 191.09,45.98 286.66,67.5 48.97,5 97.97,9.86 146.91,14.25 -144.57,-25.28 -289.1,-52.5 -433.57,-81.75zm33.79 45.84c-15.39,-3.82 -30.79,-7.66 -46.18,-11.53 -20.95,-4.38 -41.91,-8.78 -62.84,-13.23l0.03 -2.71c-368.85,-94.48 -737.56,-204.38 -1105.92,-330.62 -0.02,0 -0.02,0 -0.02,0l-119.79 0c0.01,0 0.01,0 0.01,0 326.14,124.38 652.69,235.67 979.68,334.63 118.47,19.99 236.98,38.78 355.54,56.37l-0.5 -32.91z"/>
  <path class="fil1" d="M16318.27 4165.33c1511.41,611.39 2763.91,1708.8 3569.57,3104.28l8171.11 0c-303.33,-157.8 -543.6,-278.4 -603.66,-293.32 288.87,-5.74 830.83,92.72 1504.49,293.32l541.3 0c-308.95,-135.44 -618.27,-258.82 -927.94,-370.65 106.66,13.98 213.35,29.15 319.99,45.4 0.12,-20.66 0.25,-41.27 0.37,-61.99 -519.81,-157.8 -1040.37,-280.52 -1562.04,-371.7 -14.04,-3.81 -28.04,-7.38 -42.09,-11.01 21.93,0.92 43.86,1.96 65.75,2.93 -0.29,-6.37 -0.54,-12.77 -0.82,-19.18 -66.47,-6.53 -133.01,-12.58 -199.47,-18.26 -54.35,-13.67 -108.74,-27.32 -163.13,-40.35 100.79,-5.2 201.65,-9.33 302.41,-12.9 34.83,2.9 69.76,6.11 104.59,9.31 -0.1,-3.22 -0.16,-6.35 -0.25,-9.47 -13.25,-1.39 -26.82,-2.94 -40.07,-4.32 0,-0.91 0,-2.02 0,-2.91 -11.11,-1.16 -22.26,-2.3 -33.37,-3.47 -0.19,-9.72 -0.42,-19.46 -0.64,-29.15 280.99,12.55 561.74,31.45 842.32,57.06 0.38,-13.34 0.83,-26.56 1.21,-39.91 15.26,0.85 30.56,1.89 45.84,2.84 36.78,2.25 73.57,4.58 110.35,7.14 -36.44,-16 -72.84,-31.84 -109.25,-47.52 -69.55,-29.92 -139.44,-58.45 -209.47,-85.15 177.27,26.69 354.47,56.37 531.45,89.09 0.03,-6.31 0.06,-12.75 0.09,-19.12 -205.21,-38.08 -410.68,-71.78 -616.25,-101.71 -88.68,-32.34 -177.62,-62.27 -266.54,-89.94 121.96,5.99 243.32,13.02 364.18,21.19 306.99,41.61 618.78,93.32 936.11,156.71 -0.1,-4.76 -0.19,-9.56 -0.29,-14.39 -252.6,-53.73 -502.3,-100.17 -749.82,-139.78 -0.13,-5.84 -0.23,-11.62 -0.31,-17.42 -27.38,-4.42 -54.7,-8.7 -82.08,-12.94 635.74,33.5 1270.76,94.96 1904.78,190.36 0.03,-20.66 0,-41.22 0,-61.93 -719.77,-310.67 -1412.74,-543.59 -2083.46,-719.66 15.59,1.58 31.2,3.18 46.72,4.7 -0.12,-9.75 -0.25,-19.46 -0.37,-29.15 -29.82,-5.01 -59.63,-10.09 -89.45,-14.89 402.83,53.06 805.16,122.85 1207.44,211.24 0.16,-20.67 0.35,-41.29 0.51,-62.02 -145.84,-40.45 -291.85,-78.46 -437.89,-114.07 364.79,37.61 729.1,88.18 1092.84,152.78 33.22,5.87 66.44,11.96 99.63,18.07 -32.5,-15.52 -65.02,-30.95 -97.54,-46.15 -521.8,-245.13 -1049.84,-434.63 -1581.01,-577.73 31.83,3.88 63.6,7.89 95.4,12.02 0.03,-9.75 0.06,-19.37 0.1,-29.05 -1.36,-0.29 -2.69,-0.54 -4.01,-0.83 -44.27,-8.96 -88.46,-17.47 -132.69,-26.02 -0.03,-4.83 -0.1,-9.63 -0.13,-14.43 -21.76,-3.43 -43.53,-6.84 -65.33,-10.18 54.6,7.59 109.31,15.74 163.85,24 -0.03,-6.34 -0.09,-12.81 -0.15,-19.18 -250.96,-39.43 -502.09,-71.68 -753.37,-97.73 -72.81,-14.27 -145.68,-27.73 -218.56,-40.45 -0.1,-4.7 -0.22,-9.5 -0.35,-14.2 225.88,15.96 451.76,36.63 677.3,61.77 199.54,25.21 400.72,54.45 603.54,88.07 970.31,160.87 1979.86,424.16 3039.86,848.97 0,-9.77 -0.31,-19.52 -0.31,-29.26 -937.28,-396.84 -1844.46,-667.71 -2726.25,-851.41 -0.06,-1.27 -0.09,-2.37 -0.12,-3.57 -17.86,-3.56 -35.68,-7 -53.55,-10.49 -116.72,-22.85 -233.44,-44.33 -350.17,-64.18 -51.33,-9.21 -102.56,-18.17 -153.74,-26.82 55.59,8.21 111.78,16.79 167.36,25.62 0.06,-9.72 0.1,-19.35 0.12,-29.09 -603.75,-122.12 -1208.59,-205.3 -1813.73,-255.27 105.97,2.15 211.81,5.23 317.69,9.21 397.38,32.08 793.92,78.2 1189.4,140.13 0.41,-9.63 0.82,-19.27 1.19,-28.9 -94.79,-20.32 -189.44,-39.75 -284.27,-58.3 145.94,14.98 291.66,32 437.66,50.95 289.79,47.57 579.56,103.97 869.36,169.47 427.19,96.56 854.36,213.04 1281.62,351.73 0,-9.69 0.31,-19.34 0.31,-29 -381.16,-132.53 -763.1,-247.71 -1145.62,-346.76 -308.16,-79.79 -616.69,-149.16 -925.45,-208.5 0.04,-3.51 0.06,-6.94 0.1,-10.41 32.08,4.61 64.29,9.24 96.37,13.97 -0.12,-1.8 -0.25,-3.53 -0.34,-5.33 60.32,10.69 120.76,22.05 181.01,33.45 0.07,-10.13 0.13,-20.29 0.19,-30.54 -910.74,-188.4 -1822.66,-285.92 -2736.03,-311.45 0.03,-0.81 0.03,-1.53 0.07,-2.39 37.34,-1.82 74.76,-3.41 112.15,-5.04 134.57,0.38 269.12,2.08 403.61,5.37 -0.02,-2.93 0,-5.84 0,-8.77 616.15,19.12 1231.52,70.25 1845.79,158.4 0.1,-10.2 0.16,-20.35 0.26,-30.54 -259.48,-53.47 -519.06,-98.52 -778.85,-136.32 17.39,0.48 34.84,1.14 52.21,1.67 319.71,28.81 638.81,67.29 957.06,116.44 0.09,-9.72 0.19,-19.39 0.28,-29.08 -479.24,-106.44 -959.33,-187.9 -1439.64,-247.43 225.12,5.65 450.02,15.37 674.68,29.4 833.27,95.6 1664.29,258.54 2492.48,502.08 261.4,76.86 522.62,161.68 783.2,255.03 0,-9.72 0,-19.47 0,-29.19 -229.03,-87.45 -457.76,-168.27 -686.48,-242.88 -705.21,-229.76 -1410.26,-399.96 -2115.33,-519.4 0.03,-5.36 0,-10.67 0.03,-16.02 -4.1,-0.86 -8.24,-1.74 -12.33,-2.62 765.53,107.36 1528.76,273.7 2289.78,509.46 32.49,10.12 65.3,20.19 98.11,30.6 -0.32,-9.88 -0.32,-19.56 -0.32,-29.25 -11.99,-4.13 -23.97,-8.16 -35.96,-12.27 -589.31,-202.71 -1179.62,-363.26 -1770.23,-485.92 -0.23,-12.55 -0.44,-25.21 -0.67,-37.83 551.46,116.98 1102.49,267.49 1652.9,455.77 0.32,-9.56 0.64,-19.34 0.95,-28.84 -558.32,-197.58 -1117.6,-356.14 -1677.38,-480.34 98.08,20.47 196.13,42.02 294.18,64.64 0.21,-20.62 0.44,-41.3 0.67,-61.99 -480.47,-121.99 -961.54,-217.04 -1442.89,-288.18 0,-18.33 0,-36.76 0,-55.19 -120.55,-19.14 -241.66,-36.74 -362.23,-52.93 320.77,-41.34 641.02,-78.2 960.66,-109.69 161.31,13.57 322.64,29.59 483.78,47.54 -0.19,-9.69 -0.38,-19.46 -0.57,-29.15 -64.74,-16.15 -129.56,-31.67 -194.33,-46.82 -0.69,-20.25 -1.39,-40.47 -2.08,-60.69 -293.89,-67.35 -588.71,-126.13 -884.09,-176.19 971.63,54.76 1942.23,185.97 2909.78,415.17 0,-20.66 0,-41.3 0,-61.99 -156.15,-68.18 -312.76,-133.67 -469.17,-196.07 341.1,83 685.6,179.75 1032.3,292.09 -0.31,-20.72 -0.31,-41.51 -0.31,-62.27 -874.66,-344.34 -1718.49,-580.89 -2538.28,-742.78 -77.39,-21.83 -154.99,-43.22 -232.45,-63.79 0.03,-8.96 0.03,-17.92 0.06,-26.88 -6.12,-1.83 -12.24,-3.41 -18.33,-5.3 458.86,31.2 917.03,81.08 1374.4,152.03 54.45,8.45 108.94,17.22 163.36,26.31 -41.49,-14.29 -83,-28.37 -124.48,-42.25 27.35,7.29 54.73,14.67 82.09,22.15 0.02,-20.76 0.06,-41.43 0.1,-62.13 -489.71,-141.8 -980.66,-256.29 -1472.39,-345.57 -9.94,-2.14 -19.91,-4.51 -29.88,-6.62 116.44,16.06 233.36,33.41 349.74,51.9 0.32,-5.62 0.66,-11.42 1.01,-17.07 80.51,14.48 161.05,29.59 241.59,45.52 -0.03,-9.68 -0.03,-19.47 -0.06,-29.15 -147.1,-31.62 -293.93,-60.69 -441.1,-87.43 -156.79,-45.29 -313.55,-87.79 -470.5,-127.51 189.83,25.91 379.37,55.15 569,87.9 0.44,-9.63 0.85,-19.18 1.26,-28.84 -53.28,-13.59 -107.04,-26.94 -160.32,-39.94 0,-7.91 0.04,-15.96 0.06,-23.91 -139.86,-25.81 -279.58,-49.53 -419.52,-71.42 -29.21,-6.25 -58.52,-12.09 -87.77,-18.17 202.03,23.62 404.03,51.77 605.93,85.12 0,-20.7 0,-41.43 -0.03,-62.16 -608.8,-115.78 -1218.14,-188.36 -1828,-223.86 776.14,23.79 1552.33,87.49 2322.32,191.25 -0.09,-9.75 -0.22,-19.53 -0.32,-29.09 -499.58,-139 -1000.05,-249.54 -1500.78,-334.79 469.43,27.95 938.04,76.67 1405.16,148.59 0.09,-9.59 0.19,-19.41 0.28,-29.03 -18.23,-5.01 -36.06,-9.78 -54.26,-14.83 228.56,41.3 457.41,87.93 685.71,139.95 -0.03,-3.16 -0.03,-6.22 -0.07,-9.4 50.3,11.29 100.81,22.97 151.05,34.93 -0.21,-9.82 -0.4,-19.6 -0.62,-29.32 -255.98,-67.54 -511.98,-127.64 -767.99,-180.67 75.71,6.43 151.46,13.63 227.1,21.1 -0.06,-8.33 -0.12,-16.66 -0.18,-25.05 635.05,110.98 1268.34,264.93 1899.91,468.39 -0.31,-3.67 -0.31,-7.26 -0.63,-10.88 71.61,26.65 143.54,54.19 215.16,82.25 0,-20.72 0,-41.3 0,-62 -1081.11,-452.45 -2163.78,-750.01 -3248.11,-923.71 0.06,-4.38 0.1,-8.71 0.16,-13.09 11.26,1.36 22.53,2.81 33.76,4.26 0,-0.81 0.03,-1.64 0.03,-2.4 192.85,21.01 385.73,45.4 578.43,73.35 0,-5.87 0,-11.86 0,-17.82 731.5,115.3 1462.1,284.46 2191.23,516.02 0.32,-20.63 0.32,-41.32 0.32,-61.96 -369.43,-156.73 -739.14,-293.35 -1109.28,-411.21 -0.1,-19.79 -0.19,-39.6 -0.29,-59.37 -1680.25,-550.26 -3365.27,-754.65 -5053,-730.62 384.67,-20.16 769.73,-30.22 1155.62,-28.33 261.63,16.31 523,38.49 784.37,66.85 1.1,-9.59 2.23,-19.21 3.34,-28.77 -251.72,-42.33 -500.57,-78.27 -746.79,-108.71 1075.77,11.23 2147.38,116.63 3214.54,345.57 -0.04,-9.75 -0.04,-19.45 -0.06,-29.17 -914.13,-201.69 -1830.17,-311.38 -2746.69,-347.18 964.76,5.18 1928.52,87.41 2889.75,268.13 -0.15,-9.72 -0.28,-19.53 -0.44,-29.21 -1849.06,-460.44 -3698.13,-543.95 -5547.19,-410.57 481.26,-60.69 961.69,-106.78 1440.68,-135.52 -0.26,-9.62 -0.45,-19.47 -0.7,-29.09 -794.58,18.43 -1589.15,84.55 -2383.73,185.78 0.1,-6.28 0.19,-12.68 0.29,-18.96 -582.25,39.78 -1165.75,101.62 -1749.53,180.08 60.86,-24.22 121.62,-48.68 182.44,-72.72 443.9,-74.89 887.81,-143.51 1331.59,-204.08 1487.97,-166.57 2974.47,-231.46 4455.75,-113.73 0.22,-9.72 0.44,-19.33 0.69,-29.05 -646.28,-70.13 -1293.6,-99.95 -1941.59,-96.79 730.42,-35.23 1459.9,-36.53 2187.83,5.18 -0.51,-9.78 -0.99,-19.49 -1.48,-29.21 -972.96,-55.71 -1948.72,-34.42 -2925.91,41.67 -960.6,40.6 -1922.67,148.94 -2885.62,302.16 -0.16,-5.36 -0.31,-10.82 -0.48,-16.11 930.62,-176.51 1861.25,-314.73 2791.87,-394.35 0.04,-5.93 0.06,-11.83 0.06,-17.76 517.92,-30.98 1035.83,-43.88 1553.71,-34.99 0.42,-9.65 0.83,-19.37 1.2,-29.09 -186.51,-10.34 -373.49,-17.76 -560.24,-22.26 481.75,-16.44 963.52,-15.33 1445.29,6.34 -0.07,-9.68 -0.13,-19.47 -0.17,-29.12 -934.15,-57.99 -1868.31,-39 -2802.46,36.4 -3965.21,168.5 -7967.87,1427.93 -11924.95,2172.52 -0.62,9.84 -1.26,19.62 -1.89,29.47 304.02,-35.93 608.11,-75.91 912.7,-119.38 -2217.29,405.68 -4321.44,701.04 -6364.24,710.89 0,9.69 0,19.39 -0.04,29.08 2795.71,99.34 5591.42,-441.63 8387.15,-1070.06 190.92,-34.38 381.87,-69.44 572.94,-105.02 -494.55,120.76 -989.08,240.05 -1483.62,354.66 -12.87,2.25 -25.78,4.61 -38.64,6.85 -0.06,0.75 -0.12,1.48 -0.19,2.15 -1325.06,306.47 -2650.12,579.28 -3975.18,759.47 -0.09,9.66 -0.19,19.43 -0.28,29.18 0.03,-0.09 0.06,-0.02 0.09,-0.02 1454.03,-190.58 2908.09,-492.65 4362.12,-828.48 117.19,-20.63 234.51,-42.14 351.79,-63.41 -836.3,197.01 -1672.82,409.97 -2508.36,624.56 -2530.71,518.57 -5059.56,869.73 -7574.69,653.91 -0.41,9.63 -0.82,19.25 -1.23,28.84 21.14,4.95 42.27,9.72 63.38,14.58 -216.09,-27.48 -432.19,-59.44 -648.14,-95.97 -1.02,9.46 -2.05,18.93 -3.06,28.39 520.94,165.47 1042.52,299.46 1565.11,405.89 -380.6,-18.58 -760.61,-49.5 -1140.6,-94.35 -0.1,9.65 -0.19,19.37 -0.26,29.05 665.94,115.37 1333.59,184.93 2001.2,215.56 133.19,19.56 267.02,37.39 400.31,53.67 -311.95,3.06 -623.38,-1.36 -934.91,-14.13 -0.1,9.65 -0.19,19.44 -0.29,29.12 13.13,0.85 26.25,1.89 39.34,2.69 -0.42,4.79 -0.85,9.52 -1.29,14.31 772.41,117.83 1546.58,178.06 2321.78,191.77 -523.32,50.04 -1046.18,81.93 -1568.86,92.47 -52.88,-0.41 -105.76,-1 -158.66,-1.89 0,1.48 0,3 -0.03,4.45 -932.7,10.98 -1863.89,-47.6 -2793.98,-195.47 0.13,9.72 0.28,19.41 0.42,29.21 793.19,154.67 1587.31,242.35 2382.56,275.38 -0.1,7.54 -0.19,15.14 -0.29,22.65 87.26,5.71 174.18,10.66 261.47,15.08 0.06,2.97 0.1,5.93 0.16,8.86 68.81,1.05 137.65,1.65 206.54,1.8 -193.51,10.69 -386.95,18.77 -580.35,23.82 -1329.6,-99.5 -2657.09,-356.78 -3981.71,-829.23 -0.73,9.4 -1.48,18.84 -2.24,28.34 909.1,349.17 1821.02,592.71 2734.13,749.57 -301.78,-33.06 -603.98,-74.67 -905.44,-125.59 0.15,9.72 0.31,19.43 0.44,29.22 350.44,60.54 701.46,108.21 1052.56,144.07 -69.25,-2.39 -138.59,-5.43 -207.83,-8.64 0.28,20.69 0.56,41.49 0.85,62.18 611.01,67.38 1222.03,98.56 1833.04,99.22 669.85,38.7 1340.11,38.17 2010.65,5.45 -809.69,66.85 -1619.39,91.27 -2429.06,59.84 -1251.27,-81.05 -2500.53,-299.98 -3746.18,-703.5 -0.85,9.46 -1.67,18.89 -2.49,28.33 1558.55,583.15 3122.8,859.67 4691.09,921.69 -1215.49,25.49 -2429.86,-64.58 -3642.3,-314.59 -25.23,-5.9 -50.57,-11.89 -75.81,-17.79 0,0.6 -0.02,1.29 -0.06,1.92 -132.06,-27.91 -263.61,-57.67 -395.64,-89.51 -147.29,-37.63 -294.94,-77.73 -442.17,-120.32 -0.06,2.18 -0.12,4.16 -0.19,6.31 -674.98,-185.49 -1348.99,-423.74 -2022.56,-722.43 0,3 0,6.03 0.01,9.05 -23.97,-10.62 -48.5,-21.45 -72.47,-32.18 -0.13,9.66 -0.27,19.28 -0.4,28.93 1227.42,585.4 2456.95,968.23 3688.94,1193.39 -322.04,-46.98 -643.82,-103.99 -965.41,-172.13 -0.16,9.65 -0.31,19.37 -0.48,28.99 1004.04,274.63 2010.3,433.09 3017.75,500.13 -89.72,2.62 -179.38,4.58 -269.23,5.86 0.09,12.49 0.19,24.96 0.28,37.42 -174.27,-4.76 -348.6,-12.24 -522.71,-22.14 0.03,9.05 0.09,18.11 0.13,27.16 -207.27,-5.93 -416.75,-15.59 -628.62,-29.46 -98.81,-11.89 -197.74,-24.32 -296.55,-38.14 -0.09,5.31 -0.18,10.63 -0.31,15.94 -385.33,-32.5 -778.41,-79.16 -1179.91,-144.15 -0.16,19.41 -0.35,38.84 -0.54,58.33 -610.66,-141.96 -1220.79,-322.91 -1830.38,-548.01 -0.1,9.66 -0.18,19.37 -0.27,29.02 83.03,31.04 166.28,61.39 249.4,90.76 -33.15,-11.26 -66.29,-22.78 -99.43,-34.26 -0.16,20.63 -0.34,41.2 -0.5,61.93 797.12,324.59 1594.27,570.75 2391.42,751.12 -128.75,-18.71 -257.59,-39.19 -386.24,-61.18 -50.36,-8.58 -100.68,-17.37 -150.98,-26.49 49.4,18.54 98.8,36.78 148.2,54.8 196.26,71.57 392.93,137.77 589.66,199.6 -155.78,-17.32 -311.53,-37.16 -467.22,-59.12 -1030.05,-227.45 -2060.15,-566.84 -3090.23,-1046.15 -0.46,9.53 -0.9,19.05 -1.34,28.55 0.03,0 0.06,0 0.08,0.04 860.78,404.53 1725.51,713.09 2593.13,939.14 -496.37,-86.67 -992.48,-199.1 -1488.15,-339.08 0.15,20.7 0.31,41.52 0.46,62.25 541.36,191.3 1082.85,345.51 1625.24,466.87 -196.73,-26.12 -393.58,-55.68 -590,-89.09 0,5.56 0,11.32 0,16.92 -269.32,-67.93 -538.61,-143.93 -807.67,-227.91 -0.29,9.56 -0.55,19.25 -0.84,28.84 472.28,176.6 945.42,325.28 1419.14,448.64 -30.32,7.95 -60.53,16.25 -90.67,25.18 -201.81,-46.19 -403.74,-97.04 -605.3,-151.74 -0.32,9.52 -0.63,19.24 -0.95,28.83 173.73,53.45 347.52,103.13 521.35,149.54 -22.53,7.35 -44.98,15.04 -67.38,23.05 -299.23,-76.65 -598.3,-163.34 -896.99,-260.7 -0.51,9.56 -1.01,19.12 -1.52,28.64 274.6,95.65 549.5,182.09 824.53,259.89 -17.91,7 -35.77,14.29 -53.6,21.67 -59.21,-11.86 -118.46,-24.19 -177.68,-36.87 -439.21,-92.47 -892.42,-196.87 -1183.88,-51.27 -9.32,4.7 -18.62,9.33 -27.94,14.06 13.27,4.95 26.56,9.97 39.83,14.82 222.91,82.88 446.08,159.29 669.15,230.05 -92.12,-22.62 -184.27,-46.25 -276.33,-70.57 0.19,9.75 0.35,19.53 0.54,29.24 496.37,168.94 992.75,308.45 1489.12,421.55l3800.77 0c-153.71,267.04 -294.47,544.88 -421.1,833.04l484.58 0c1781.69,-3095.42 5618.03,-4481.58 9022.76,-3104.28zm-13442.45 2271.24l-26.22 -4.6 0.02 4.6 26.19 0zm-82.04 0c-98.16,-21.36 -196.35,-43.88 -294.48,-67.29 -0.09,9.69 -0.16,19.37 -0.25,29.02 40.97,13.04 81.93,25.67 122.87,38.28l171.87 0zm-190.93 176.68c-328.17,-85.51 -656.14,-182.93 -983.89,-293.06 -0.51,9.53 -1.01,19.05 -1.51,28.55 126.3,53.03 253.01,104.2 380.11,153.36 157.43,39.38 314.92,76.48 472.45,111.39 72.95,9.88 146.01,19.82 218.98,28.68 -28.71,-9.55 -57.43,-19.19 -86.14,-28.91zm-1001.95 -138.69c-238.84,-80.7 -477.54,-168.52 -716.02,-263.98 0.03,9.75 0.09,19.47 0.13,29.18 176.04,70.32 352.19,136.7 528.42,199.11 62.48,12.24 124.97,24.14 187.46,35.69zm-154.31 124.81l1.83 61.12c284.92,119.87 569.98,228.85 855.18,327.6l1.36 -16.82c366.93,96.76 734.78,181.11 1102.9,253.9 92.97,11.8 185.91,22.78 278.91,33.12 14.77,0.73 29.53,1.58 44.29,2.36 -204.2,-44.36 -408.28,-92.78 -612.27,-145.97 -402.93,-79.33 -805.22,-173.07 -1206.5,-281.72 -0.04,-0.09 -0.06,-0.07 -0.1,-0.03 0.44,-5.55 0.88,-11.02 1.32,-16.56 301.85,80.95 603.7,153.28 905.52,217.3 -207.2,-58.46 -414.29,-121.56 -621.14,-189.67 -0.03,-16.02 -0.03,-31.98 -0.06,-48.01 19.72,2.52 39.53,5.17 59.27,7.54 -270.27,-60.8 -540.45,-128.75 -810.51,-204.16zm1243.14 516.21c13.61,4.28 27.21,8.53 40.82,12.76 -0.32,14.7 -0.64,29.31 -0.95,44.04 -16.92,-4.26 -33.85,-8.65 -50.77,-12.94 0,1.48 0,2.94 0,4.45 -20.19,-5.21 -40.86,-10.55 -61.04,-15.75 -0.09,4.73 -0.22,9.5 -0.35,14.23 20.11,5.56 40.23,11.07 60.36,16.54 125.08,13.03 250.26,24.77 375.43,35.41 -14.47,-2.61 -28.99,-5.36 -43.47,-8.16 -0.03,-2.25 -0.06,-4.49 -0.09,-6.73 -106.66,-26.88 -213.32,-54.81 -319.95,-83.86z"/>
  <path class="fil2" d="M11440.51 18663.89c4013.03,1623.37 8534.78,-10.44 10634.81,-3658.91 195.63,-339.9 370.28,-697.2 521.51,-1071.04l-3970.8 -1606.28c-635.69,1569.84 -2174.57,2677.32 -3972.37,2677.32 -2366.1,0 -4284.19,-1918.1 -4284.19,-4284.23 0,-2366.09 1918.09,-4284.18 4284.19,-4284.18 1797.8,0 3336.68,1107.47 3972.37,2677.31l3970.8 -1606.27c-150.04,-370.91 -324.94,-728.59 -522.65,-1071.04 -949.58,-1644.8 -2425.88,-2938.31 -4207.34,-3658.95 -4013.05,-1623.34 -8534.78,10.47 -10634.81,3658.95 -195.63,339.85 -370.28,697.2 -521.52,1071.04 -1028.89,2543.49 -749.25,5291.28 522.37,7497.37 921.6,1598.89 2364.24,2913.23 4207.63,3658.91z"/>
  <path class="fil3" d="M15790.13 17866.09c-338,0 -1443.43,-95.62 -1477.09,-1325.66 -11.86,-433.12 139.63,-776.73 434.7,-1004.44 -185.53,29.75 -419.05,52.18 -700.9,52.18 -148.97,0 -303.87,-6.37 -461.47,-19l-161.56 237.27 -5.05 5.68c-11.23,12.58 -52.81,53.72 -115.25,53.72 -57.32,0 -107.16,-34.23 -133.31,-91.58 -16.06,-35.37 -108.02,-232.26 -153.04,-328.51 -213.3,-47.45 -941.35,-248.28 -1700.63,-903.84l-484.03 136.63 -5.68 1.01c-5.52,0.98 -20.38,3.25 -39.15,3.25 -73.97,0 -113.19,-36.12 -130.01,-57.67 -27.55,-35.36 -36.24,-80.54 -24.48,-127.23 11.36,-45.53 118.18,-376.24 166.29,-524.67 -139.51,-193.2 -635.72,-913.74 -846.24,-1665.08l-349.39 -53.54c-51.11,-6.55 -112.5,-35.93 -134.77,-99.53 -11.2,-32.05 -20.03,-95.77 46.84,-162.66 44.23,-44.23 228.88,-211.68 319.42,-293.55 -45.84,-227.29 -166.57,-987.91 10.63,-2025.74l-130.95 -108.93c-40.19,-34.51 -75.43,-93.83 -58.01,-160.32 8.8,-33.57 38.11,-92.78 135.63,-112.25 46.71,-9.34 111.39,-29.34 155.65,-43.82 94.17,-240.27 501.13,-1234.23 995.28,-1786.91l-97.35 -278.13c-11.01,-26.53 -30.13,-90.13 7.29,-149.1 26.37,-41.51 72.02,-65.33 125.3,-65.33 17.41,0 35.58,2.43 55.59,7.39 62.43,15.61 202.82,56.02 283.64,79.52 92.59,-77.63 290.43,-239.35 428.64,-322.54 60.86,-218.78 317.71,-1144 355.07,-1308.94 55.71,-244.9 416.02,-624.19 754.77,-629.37 8.9,-0.15 17.48,-0.19 25.87,-0.19 171.74,0 262,28.33 318.51,66.35 128.74,-57.82 392.76,-173.8 509.33,-205.63 14.48,-3.94 29.49,-8.32 44.98,-12.87 71.2,-20.79 159.79,-46.7 250.68,-46.7 124.27,0 226.19,47.64 302.98,141.63 105.05,128.81 282.73,454.12 388.85,648.52 9.93,18.21 20,36.63 29.3,53.57 78.4,-19.18 198,-41.55 330.18,-41.55 168.12,0 313.81,35.5 433.88,105.53 85.24,-20.76 244.56,-56.85 323.83,-56.85 5.08,0 9.81,0.15 14.27,0.37 62.18,3.31 146.85,18.36 197.64,28.3 107.27,-64.7 202.51,-181.55 232.22,-229.85l9.12 -15.2c235.06,-395.39 439.24,-587.67 624.23,-587.82 176.8,0 287.44,49.24 347.4,85.2 52.06,-8.3 137.99,-19.68 217.05,-19.68 23.91,0 46.28,1.04 66.41,3.12 201.34,20.19 299.71,72.34 401.47,155.55 125.32,102.06 221.28,215.39 331.19,391.03 98.93,158.4 342.32,399.5 378.16,431.01 10.63,8.57 66.28,45.74 111.02,75.56 175.4,116.98 234.21,158.77 260.39,192.37 56.63,72.91 51.64,218.88 11.9,304.41 -34.61,74.36 -97.51,118.74 -172.69,121.77l-14.04 0.56 -13.75 -2.77c-2.58,-0.57 -65.02,-13.32 -153.55,-36.1 -32.55,-8.38 -78.64,-19.59 -130.88,-32.3 -226.17,-54.99 -404.58,-99.63 -472.39,-131.72 -38.12,-18.05 -105.78,-64.23 -222.14,-144.33 -113.76,-78.34 -325.56,-224.14 -381.21,-240.52 -27.38,-8.01 -55.09,-19.59 -81.83,-30.76 -46.81,-19.52 -95.19,-39.69 -137.11,-39.69 -30.13,0 -71.61,9.5 -125.15,83.6 -74.07,102.5 -104.96,208.5 -137.63,320.71 -28.18,96.64 -57.11,195.88 -112.97,297.78 84.32,76.79 218.37,180.99 332.5,208.62 37.61,-5.83 115.38,-15.86 203.49,-15.86 113.57,0 209.18,16.56 284.24,49.21 166.48,72.59 371.6,213.61 426.78,324.03 86.63,172.28 57.03,360.52 -88.15,559.27l-2.75 3.73 -2.96 3.5c-0.92,1.07 -133.64,162.06 -137.27,408.64 -3.56,240.38 51.11,382.06 80.7,431.41 63.13,36.22 224.37,134.9 304.35,240.17 212.28,279.01 329.86,572.15 349.39,871.15 21.17,323.78 -87.23,452.51 -210.52,523.72 8.55,53.06 11.11,120.99 -8.05,192.27 24.26,153.77 149.1,934.01 213.49,1139.06 39.69,126.41 110.48,687.87 65.27,941.13l172.09 281.47 3.88 10.22c24.95,66.12 8.96,153.61 -69.94,192.72 -18.83,9.34 -41.99,20.82 -386.11,61.7 -71.86,103.2 -252.34,362.17 -300.8,431.26 -61.3,87.68 -216.57,268.88 -274.68,315.29 -3.19,2.68 -12.53,12.81 -19.34,20.18 -41.71,45.11 -114.58,123.95 -237.02,143.96 -51.77,64.38 -145.31,179.94 -205.69,250.33l144.17 565.43c12.14,37.07 13.43,88.49 -16.35,133.19 -17.06,25.65 -58.27,68.62 -142.46,68.62 -57.45,0 -221.52,-55.8 -488.07,-166.03 -135.56,99.81 -495.17,358.75 -738.66,479.8 8.74,63.86 16.35,152.6 9.85,243.39 354.09,91.96 874.97,416.97 880.68,1169.47 3.03,398.13 -135.18,758.37 -389.2,1014.35 -220.04,221.71 -512.93,343.83 -824.75,343.83z"/>
  <path class="fil3" d="M14005.9 4479.41c0,0 0.02,0 0,0 -107.48,-0.03 -204.9,28.45 -283.21,51.37 -14.8,4.32 -29.15,8.51 -42.97,12.3 -110,30 -330.27,124.46 -473.55,188.09 -81.3,-36.75 -184.87,-52.94 -323.81,-52.94 -8.93,0 -18.14,0.1 -27.61,0.22 -408.86,6.28 -801.12,434.13 -866.05,719.5 -31.01,136.92 -224.58,839.33 -341.75,1260.64 -118.78,77.2 -261.87,190.96 -355.7,268.22 -79.53,-22.93 -178.25,-50.95 -228.59,-63.54 -29.53,-7.35 -56.88,-10.88 -83.85,-10.88 -92.4,0 -175.85,44.55 -223.2,119.12 -46.73,73.6 -52.94,167.3 -17.54,253.42l73.82 210.77c-456.28,539.78 -829.74,1415.76 -951.04,1718.11 -33.41,10.07 -66.85,19.28 -91.02,24.14 -165.24,32.96 -212.4,148.43 -225.02,196.54 -25.94,98.91 9.81,204.87 93.25,276.51l1.39 1.2 1.39 1.17 79.85 66.41c-150.6,938.06 -62.65,1648.2 -11.29,1936.67 -97.64,88.46 -236.17,214.65 -275.51,253.99 -80.38,80.38 -108.14,186.19 -74.26,282.99 33.22,94.86 120.29,161.9 228.09,176.06l274.93 42.12c209.79,689.53 637.61,1338.59 808.51,1581.35 -58.21,179.85 -139.69,433.49 -150.58,477.22 -20.25,80.35 -3.66,163.03 45.62,226.26 51.45,66 130.11,102.37 221.46,102.37 26.97,0 48.83,-3.19 59.47,-5.08l11.33 -2 11.07 -3.14 418.91 -118.21c703.29,591.04 1376.55,807.2 1647.32,875.07 53.41,114.32 116.19,248.94 128.77,276.6 44.99,98.68 136.51,159.79 238.97,159.79 107.64,0 176.98,-64.73 201.82,-92.53l10.06 -11.32 8.55 -12.53 119.6 -175.65c137.45,9.53 272.6,14.32 403.3,14.32 143.13,0 274.5,-5.74 393.97,-15.33 -167.84,229.82 -252.85,519.87 -243.7,854.81 17.7,646.85 325.29,988.39 580.19,1161.02 338.6,229.29 737.68,277.43 1012.83,277.43 342.92,0 665.05,-134.3 907.06,-378.13 275.95,-278.06 426.14,-667.61 422.9,-1096.94 -4.54,-597.67 -303.36,-922.79 -553.25,-1090.32 -115.91,-77.7 -230.74,-128.3 -325,-160.86 -0.31,-33.25 -1.96,-65.17 -4.32,-94.86 217.17,-119 483.09,-306.17 630.92,-413.71 369.17,150.04 434.94,150 471.86,150 100.95,0 188.06,-43.82 238.98,-120.26 51.23,-76.91 50.98,-164.08 31.7,-228.22l-128.9 -505.48c46.09,-55.09 99.53,-120.8 143.44,-175.19 134.49,-36.78 217.02,-126.06 257.27,-169.63 4.1,-4.42 7.8,-8.58 11.36,-12.17 73.96,-61.46 232.92,-250.27 292.64,-335.63 42.65,-60.83 188.03,-269.39 271.12,-388.67 314.56,-38.14 338.16,-49.87 372.26,-66.79 122.02,-60.63 176.57,-205.69 126.88,-337.49l-7.69 -20.48 -11.46 -18.67 -144.96 -237.18c34.76,-294.81 -33.12,-816.89 -74.99,-950.3 -53.6,-170.8 -160.29,-810.34 -206.04,-1099.47 10.76,-49.34 13.66,-96.66 12.09,-139.75 119.25,-92.59 225.72,-258.16 204.11,-588.71 -21.07,-322.22 -146.54,-636.44 -372.89,-933.9 -81.42,-107.13 -225.22,-202.69 -308.38,-252.59 -22.49,-52.53 -55.59,-169.16 -52.97,-346.96 2.87,-192 99.72,-322.26 110.19,-335.79l7.26 -7.98 3.22 -5.37c170.44,-233.32 204.36,-468.48 98.05,-680.01 -73.32,-146.67 -302.32,-298.85 -483.94,-378.01 -89.85,-39.12 -201.06,-58.9 -330.62,-58.93 -79.1,0 -149.76,7.29 -195.63,13.5 -58.56,-19.84 -131.46,-67.95 -196.76,-120.07 36.12,-82.62 59.24,-161.9 80.7,-235.47 31.11,-106.8 57.99,-199 120.32,-285.25 15.77,-21.83 27.67,-32.11 32.77,-35.52 20,1.14 60.76,18.14 90.79,30.67 28.56,11.92 58.06,24.22 90.26,33.93 57.83,23.47 248.76,154.97 351.76,225.88 128.21,88.25 191.87,131.65 238.21,153.61 71.84,33.98 210.7,70.54 494.89,139.63 51.55,12.56 96.98,23.57 129.03,31.84 91.45,23.53 156.64,36.88 159.38,37.44l27.53 5.58 28.08 -1.14c118.27,-4.76 220.39,-75.3 273.14,-188.68 55.99,-120.38 61.89,-311.97 -25.18,-424.22 -37.35,-47.89 -91.64,-87.1 -287.73,-217.9 -36.67,-24.45 -86.07,-57.41 -102.31,-69.34 -42.37,-38.99 -266.01,-263.01 -352.92,-402.2 -117.2,-187.33 -220.45,-308.89 -356.49,-419.71 -115.59,-94.51 -233.55,-157.89 -463.25,-180.95 -23.6,-2.43 -49.91,-3.69 -77.74,-3.69 -69.06,0 -141.14,7.64 -196.07,15.24 -106.12,-54.23 -227.58,-80.73 -368.31,-80.73 -232.63,0.2 -462.62,204.94 -723.96,644.36 -3.6,6.09 -6.38,10.79 -8.3,13.89 -17.76,28.89 -83,111.64 -158.55,167.99 -51.52,-9.12 -115.12,-18.77 -166.39,-21.48 -6.37,-0.35 -13.15,-0.51 -20.35,-0.51 -78.3,-0.02 -209.13,26.6 -307.69,49.62 -129,-65.3 -279.88,-98.33 -450.02,-98.33 -100.7,0 -193.93,11.64 -270.05,25.84 -142.35,-260.33 -288.16,-520.72 -388.35,-643.6 -98.66,-120.7 -234.47,-184.4 -392.96,-184.4l0 0 0 0zm0 231.95c76.88,0 151.77,23.85 213.2,99.02 134.74,165.28 417.25,712.92 451.98,765.19 0,0 176.47,-62.06 386.14,-62.06 137.05,0 288.25,26.53 413.63,114.17 0,0 253.51,-65.46 344.12,-65.46 2.83,0 5.56,0.06 8.07,0.19 82.62,4.39 221.78,34.58 221.78,34.58l-0.03 0.09c152.15,-73.88 278.31,-234.77 313.05,-291.27 34.73,-56.51 310.84,-547.64 534.67,-547.83 186.86,0 280.65,61.8 321.62,91.42 0,0 131.12,-25.9 242.76,-25.9 19,0 37.41,0.76 54.55,2.5 185.59,18.64 261.65,66 339.93,130.01 109.5,89.25 197.45,188.87 306.26,362.76 108.63,173.9 365.14,426.05 399.9,456.59 34.73,30.35 326.01,213.01 356.55,252.15 30.34,39.12 30.34,234.78 -74.04,238.97 0,0 -61.08,-12.43 -147.74,-34.73 -134.77,-34.73 -499.93,-117.39 -582.56,-156.54 -82.65,-39.12 -501.57,-356.35 -620.23,-391.28 -67.83,-19.84 -156.5,-75.17 -251.71,-75.17 -71.43,0 -146.47,31.14 -219.13,131.68 -169.69,234.77 -139.16,469.55 -304.25,704.33 0,0 251.94,269.51 477.95,308.63 0,0 93.79,-17.82 205.63,-17.82 79.27,0 167.61,8.96 238,39.59 169.47,73.88 334.58,200.05 369.32,269.51 34.93,69.5 87.04,213.04 -78.08,439.05 0,0 -160.89,187.04 -165.28,482.52 -4.38,295.66 73.88,469.55 117.39,521.67 0,0 208.62,113 291.28,221.81 82.66,108.58 299.86,408.67 326.01,808.57 26.15,399.89 -169.51,412.86 -230.39,456.39 0,0 52.11,121.77 8.76,243.54 0,0 147.02,944.64 221.63,1182.28 44.07,140.45 108.96,755.57 52.12,926.18l191.27 312.86c0,0 13.15,34.92 -13,47.89 -26.15,13 -399.9,56.5 -399.9,56.5 0,0 -269.51,386.9 -330.39,473.76 -60.89,87.04 -208.62,256.54 -252.16,291.31 -43.51,34.93 -104.39,143.51 -243.36,143.51 0,0 -226.19,282.52 -273.93,330.43l160.73 630.26c0,0 21.77,52.12 -47.73,52.12 -69.66,0 -504.29,-182.47 -504.29,-182.47 0,0 -582.56,439.02 -852.06,543.41 0,0 52.31,226 8.76,404.28 0,0 888.13,117.39 895.42,1078.23 5.3,698.88 -465.33,1241.34 -1097.98,1241.34 -566.12,0 -1334.24,-229.09 -1361.15,-1212.81 -26.16,-956.65 807.24,-1111.2 863.74,-1132.97l-52.12 -117.19c0,0 -394.63,185.08 -1193.76,185.08 -157.36,0 -330.4,-7.19 -519.14,-24.35l-195.47 287.08c0,0 -13.38,14.96 -28.71,14.96 -9.4,0 -19.52,-5.62 -27.79,-23.76 -21.77,-47.89 -178.27,-382.51 -178.27,-382.51 0,0 -865.06,-143.35 -1751.87,-930.37l-539.05 152.16c0,0 -8.3,1.45 -18.87,1.45 -20.94,0 -50.79,-5.8 -42.02,-40.6 12.97,-52.12 182.47,-573.76 182.47,-573.76 0,0 -660.83,-873.86 -882.39,-1747.49l-426.05 -65.27c0,0 -78.27,-8.76 -21.76,-65.27 56.5,-56.5 365.16,-334.62 365.16,-334.62 0,0 -217.24,-865.07 8.77,-2112.84l-182.66 -151.96c0,0 -60.89,-52.27 26.15,-69.66 86.85,-17.36 221.59,-65.08 221.59,-65.08 0,0 473.93,-1260.74 1039.14,-1851.93l-121.77 -347.78c0,0 -26.43,-56.25 24.51,-56.25 7.45,0 16.54,1.2 27.61,3.97 87.04,21.74 339,95.81 339,95.81 0,0 339.17,-291.47 500.1,-373.94 0,0 326.01,-1169.47 369.36,-1360.77 43.51,-191.24 356.55,-534.63 643.44,-539.02 8.24,-0.12 16.25,-0.19 24.05,-0.19 263.35,0 272.37,70.16 297.59,87.23 0,0 417.44,-191.46 560.79,-230.58 78.2,-21.33 173.1,-55.49 265.16,-55.49z"/>
  <path class="fil4" d="M16044.79 5597.08c152.15,-73.88 278.31,-234.77 313.05,-291.27 34.73,-56.51 310.84,-547.64 534.67,-547.83 186.86,0 280.65,61.8 321.62,91.42 0,0 179.54,-35.5 297.31,-23.4 185.59,18.64 261.65,66 339.93,130.01 109.5,89.25 197.45,188.87 306.26,362.76 108.63,173.9 365.14,426.05 399.9,456.59 34.73,30.35 326.01,213.01 356.55,252.15 30.34,39.12 30.34,234.78 -74.04,238.97 0,0 -61.08,-12.43 -147.74,-34.73 -134.77,-34.73 -499.93,-117.39 -582.56,-156.5 -82.65,-39.15 -501.57,-356.39 -620.23,-391.32 -118.68,-34.73 -301.34,-178.08 -470.84,56.51 -169.69,234.77 -139.16,469.55 -304.25,704.33 0,0 251.94,269.51 477.95,308.63 0,0 273.93,-52.08 443.59,21.76 169.51,73.88 334.62,200.05 369.35,269.51 34.93,69.5 87.04,213.04 -78.08,439.05 0,0 -160.89,187.04 -165.28,482.52 -4.38,295.66 73.88,469.55 117.39,521.67 0,0 208.62,113 291.28,221.81 82.66,108.58 299.86,408.67 326.01,808.57 26.15,399.89 -169.51,412.86 -230.39,456.39 0,0 52.11,121.77 8.76,243.54 0,0 147.02,944.64 221.63,1182.28 44.07,140.45 108.96,755.57 52.12,926.18l191.27 312.86c0,0 13.15,34.92 -13,47.89 -26.15,13 -399.9,56.5 -399.9,56.5 0,0 -269.51,386.94 -330.39,473.76 -60.89,87.04 -208.62,256.54 -252.16,291.31 -43.51,34.93 -104.39,143.51 -243.36,143.51 0,0 -226.19,282.52 -273.93,330.43l160.73 630.26c0,0 21.77,52.12 -47.73,52.12 -69.66,0 -504.29,-182.47 -504.29,-182.47 0,0 -582.56,439.02 -852.06,543.41 0,0 52.31,226 8.76,404.28 0,0 888.13,117.39 895.42,1078.23 5.3,698.88 -465.33,1241.34 -1097.98,1241.34 -566.12,0 -1334.24,-229.09 -1361.15,-1212.81 -26.16,-956.65 807.24,-1111.2 863.74,-1132.97l-52.12 -117.19c0,0 -565.36,265.12 -1712.9,160.73l-195.47 287.08c0,0 -34.73,38.93 -56.51,-8.8 -21.77,-47.89 -178.27,-382.51 -178.27,-382.51 0,0 -865.06,-143.35 -1751.87,-930.37l-539.05 152.16c0,0 -74.05,13.16 -60.89,-39.15 12.97,-52.12 182.47,-573.76 182.47,-573.76 0,0 -660.83,-873.86 -882.39,-1747.49l-426.05 -65.27c0,0 -78.27,-8.76 -21.76,-65.27 56.5,-56.5 365.16,-334.62 365.16,-334.62 0,0 -217.24,-865.07 8.77,-2112.84l-182.66 -151.96c0,0 -60.89,-52.27 26.15,-69.66 86.85,-17.36 221.59,-65.08 221.59,-65.08 0,0 473.93,-1260.74 1039.14,-1851.93l-121.77 -347.78c0,0 -34.73,-73.86 52.12,-52.28 87.04,21.74 339,95.81 339,95.81 0,0 339.17,-291.47 500.1,-373.94 0,0 326.01,-1169.47 369.36,-1360.77 43.51,-191.24 356.55,-534.63 643.44,-539.02 286.9,-4.38 295.67,69.47 321.63,87.04 0,0 417.44,-191.46 560.79,-230.58 143.54,-39.12 343.4,-121.58 478.32,43.51 134.77,165.3 417.28,712.94 452.01,765.22 0,0 482.55,-169.67 799.77,52.11 0,0 269.7,-69.65 352.19,-65.27 82.62,4.39 221.78,34.58 221.78,34.58l-0.03 0.09z"/>
  <path class="fil3" d="M16446.83 15815.21l19.97 455.1 -215.47 4.74 -5.27 -48.87c-26.28,-229.66 -26.28,-229.66 -222.82,-229.66l-42.56 0 -329.48 4.19 16.27 475.08 127.17 -3.66c82,-2.65 145.56,-6.31 165.03,-26.82 18.39,-19.97 18.9,-82.5 16.28,-140.83l-2.08 -50.48 198.62 -4.7 24.2 589.63 -191.31 7.89 -8.93 -41.01c-6.84,-33.1 -10,-61.99 -12.62,-85.12 -8.39,-75.68 -8.93,-80.41 -131.9,-80.41 -15.24,0 -32.59,0.54 -50.98,1.04l-127.17 4.23 15.78 455.07c3.16,84.1 3.16,84.1 95.11,84.1 22.05,0 46.75,-0.54 76.19,-2.11l50.44 -3.16 6.3 170.26 -49.4 1.58c-53.06,2.11 -106.67,4.73 -160.26,7.38 -53.6,2.62 -107.74,5.24 -161.34,7.35 -51.51,3.66 -104.58,7.35 -158.18,11.05 -53.63,3.66 -107.23,7.35 -161.33,11.55l-51.52 4.19 -5.23 -172.38 47.79 -2.61c170.8,-9.47 170.8,-9.47 167.65,-99.85l-33.63 -1027.91c-2.62,-92.46 -2.62,-92.46 -146.1,-92.46l-72.5 1.04 -5.27 -171.33 1318.54 -12.08 0 0zm-468.26 -288.51c0,0 -67.26,163.95 -90.9,192.85 -23.66,29.44 -79.37,103.55 -198.65,58.33 -118.77,-44.67 -44.67,-214.4 -44.67,-214.4 0,0 -142.95,-11.03 -329.52,90.39 -270.61,147.67 -387.81,306.89 -497.13,590.16 -84.33,217.05 -122.18,768.84 274.34,1098.32 373.11,310.05 706.79,285.89 1079.94,189.19 327.9,-84.61 744.11,-691.05 609.06,-1260.19 -154.49,-648.49 -802.47,-744.65 -802.47,-744.65zm-301.63 -87.22c0,0 -455.64,-21.04 -749.38,225.43 -70.45,58.87 -425.8,281.15 -396.88,963.81 27.26,645.34 669.6,873.4 669.6,873.4 -254.33,-172.38 -632.82,-483.46 -492.23,-1178.21 149.06,-736.77 945.22,-831.38 945.22,-831.38l23.66 -53.06 0 0zm-171.84 -912.83c-85.15,7.88 -169.76,84.6 -193.38,184.96 -24.71,103.54 52.52,106.16 87.22,108.81 0,0 -53.09,-116.67 18.39,-180.26 71.45,-63.6 103,-47.83 121.9,-47.83 18.4,0 95.15,32.06 95.15,32.06 -7.89,-28.9 -44.67,-105.62 -129.28,-97.73l0 0zm-2162.37 -44.14c-145.77,3.66 -275.47,52.02 -344.56,127.71 -28.9,31.51 -91.96,114.54 -91.96,174.99 0,20.48 49.37,87.74 49.37,87.74 2.17,-78.8 94.35,-276.41 348.15,-287.43 253.77,-11.57 456.05,107.7 503.02,148.18 47.2,40.47 76.38,137.17 76.38,159.23 0,22.62 -60.67,141.9 -67.22,152.95 0,0 105.42,-4.73 139.06,-67.27 33.63,-63.06 8.99,-177.63 -8.93,-206.54 -17.92,-29.43 -121.52,-219.67 -453.78,-278.53 -50.51,-8.93 -100.95,-12.59 -149.54,-11.01zm3120.91 -512.39c0,0 -37.85,63.06 -49.41,87.76 -11.03,24.71 -68.83,183.92 24.71,307.43 71.99,94.59 200.2,42.56 200.2,42.56l-78.3 -33.62c0,0 -47.8,-40.48 -60.95,-76.19 -44.13,-117.73 -8.93,-249.63 40.47,-314.27l-76.72 -13.67 0 0zm-2669.11 -431.45c-29.75,-2.62 -56.03,1.58 -78.71,11.05 -45.37,17.86 -250.62,132.94 -250.62,132.94 0,0 83.54,28.39 259.23,57.82 83.03,14.16 371.06,7.35 371.06,7.35 0,0 -127.48,-148.72 -201.18,-181.3 -36.78,-16.28 -69.97,-25.24 -99.78,-27.86l0 0zm-2694.48 -97.73c-9.87,0 -16.71,0.5 -19.81,1.58 -24.7,6.81 -44.99,4.2 -85.4,76.19 -40.41,71.45 -9.02,266.96 -9.02,266.96 0,0 35.93,-91.96 42.72,-118.74 6.72,-26.82 71.76,-91.99 109.98,-98.81 38.26,-6.85 240.32,-45.21 444.75,137.16 204.43,181.81 199.86,428.8 157.24,509.75 -42.56,80.92 -123.67,112.47 -123.67,112.47 13.53,13.12 179.73,55.68 242.63,17.85 62.9,-38.36 80.82,-213.35 49.56,-359.45 -31.57,-146.1 -206.79,-305.32 -206.79,-305.32 -17.91,-6.84 -51.55,-13.65 -136.95,-74.64 -85.33,-60.41 -85.39,-78.3 -85.39,-78.3 -94.2,-68.83 -310.68,-87.76 -379.84,-86.69zm3119.92 -1613.87c0,0 -316.6,465.07 -309.82,559.69 6.72,94.08 26.78,188.65 73.98,249.09 47.19,60.95 148.31,269.58 181.99,350.52 33.63,80.92 87.55,282.7 87.55,282.7 0,0 -148.24,-363.65 -235.69,-430.91 -87.55,-67.79 -168.53,-181.84 -175.31,-215.97 0,0 -74.05,107.69 -53.76,175.5 20.13,67.28 -81.05,-148.18 -47.2,-336.83 33.63,-188.69 53.98,-303.23 74.11,-323.74 0,0 -13.63,101.42 13.44,161.87 26.85,60.44 161.71,-202.32 222.41,-276.43 60.69,-74.11 168.3,-195.49 168.3,-195.49zm-3789.24 -511.87c-15.02,0.54 -27.8,3.16 -37.89,6.85 -80.29,26.78 -152.66,177.11 -163.98,208.62 0,0 32.46,-43.09 83.12,-67.26 16.82,-7.89 35.84,-17.35 56.12,-17.86 80.82,-2.11 204.27,53.6 276.33,193.38 74.05,143.45 91.9,388.35 67.42,482.43 -22.49,85.65 -78.61,150.8 -121.4,166.57 -42.62,15.78 -217.74,-11.54 -217.74,-11.54 26.92,119.28 114.5,166.56 114.5,166.56 49.33,24.71 157.17,48.36 195.43,-15.77 231.27,-388.35 45.02,-907.56 -69.66,-1024.22 -72.09,-73.57 -137.2,-89.86 -182.25,-87.77l0 0zm3721.95 -821.9c0,0 -155.06,307.43 -264.72,458.8 -139.53,192.34 -288.79,384.66 -368.7,518.14 -87.04,144.52 -262.76,525.52 -262.76,525.52 13.34,-47.3 155.12,-451.41 87.64,-384.16 -67.48,67.29 -478.48,505.54 -478.48,505.54 47.13,-87.76 136.13,-261.68 512.27,-650.07 507.26,-523.91 774.76,-973.78 774.76,-973.78zm3734.56 -291.66l-107.73 155.02c0,0 222.29,701.06 242.79,869.2 19.97,168.71 26.81,512.39 26.81,512.39 0,0 -94.61,-613.28 -148.2,-748.34 -54.14,-134.52 -94.58,-397.28 -195.5,-539.18 0,0 -384.15,425.13 -471.88,606.98 -87.26,181.84 -229.13,673.69 -235.44,767.77 -6.85,94.61 -13.67,209.16 0,262.76 0,0 122.43,-140.83 162.91,-154.49 39.95,-13.65 140.29,6.31 153.45,39.95 0,0 55.72,-281.15 141.37,-350.52 6.81,-4.74 16.81,-40.48 2.61,-93.54 -20.47,-78.3 -63.06,-362.61 -69.88,-418.33 -4.73,-42.05 76.73,-41.51 117.16,-21 40.49,19.97 359.99,157.1 461.42,644.26 46.24,222.31 21.54,333.71 21.54,333.71 0,0 48.87,15.77 68.33,25.24 18.9,9.97 47.8,9.97 120.32,91.43 72,81.98 72,216.51 38.37,284.3 -33.63,67.26 -207.05,250.14 -245.4,274.34 -38.37,23.63 -62.54,120.31 -163.95,177.61 -100.93,57.8 -230.71,9.97 -230.71,9.97 -110.89,38.36 -463,680.03 -463,680.03 0,0 215.47,-47.29 303.24,-40.47 87.23,6.85 141.36,6.85 195.5,-40.47 179.19,-157.11 484.51,-612.75 676.85,-918.07 83.04,-132.43 175.53,-334.21 179.19,-468.23 7.89,-275.38 -8.93,-523.94 -45.18,-671.08 -50.98,-206.54 -130.32,-617.48 -150.83,-792.48 -19.97,-175.52 -54.14,-371.03 -54.14,-371.03 0,0 -60.4,114.56 -141.36,141.37 -80.38,27.32 -148.18,-6.3 -161.84,-60.44 -13.15,-53.6 -26.82,-188.65 -26.82,-188.65l0 0zm-2797.86 -119.82c0,0 -121.9,132.97 -147.67,167.65 -71.99,96.16 -40.98,230.17 -108.24,344.75 -67.7,114.56 -182.09,148.18 -182.09,148.18 20.12,-40.44 80.76,-74.1 107.67,-141.36 27.13,-67.26 33.95,-209.16 94.39,-316.89 60.44,-107.7 235.94,-202.32 235.94,-202.32zm1468.82 -237.27c24.16,0 43.63,19.72 43.63,43.82 0,24.22 -19.47,44.19 -43.63,44.19 -24.16,0 -43.59,-19.97 -43.59,-44.19 0,-24.1 19.43,-43.82 43.59,-43.82zm314.78 -136.38c27.32,0 48.87,21.77 48.87,48.84 0,27.07 -21.55,48.77 -48.87,48.77 -26.78,0 -48.86,-21.7 -48.86,-48.77 0,-27.07 22.08,-48.84 48.86,-48.84zm-496.58 -80.76c32.55,0 58.83,26.34 58.83,58.9 0,32.55 -26.28,58.8 -58.83,58.8 -32.6,0 -58.87,-26.24 -58.87,-58.8 0,-32.56 26.27,-58.9 58.87,-58.9zm250.64 -40.57c26.28,0 47.31,21.08 47.31,47.26 0,25.96 -21.04,47.07 -47.31,47.07 -25.74,0 -46.75,-21.11 -46.75,-47.07 0,-26.18 21.01,-47.26 46.75,-47.26zm1424.68 -113.41c29.94,0 54.14,24.07 54.14,53.89 0,29.78 -24.2,54 -54.14,54 -29.96,0 -54.13,-24.22 -54.13,-54 0,-29.82 24.16,-53.89 54.13,-53.89zm175.54 -33.79c24.7,0 44.67,20.29 44.67,44.98 0,24.86 -19.97,45.05 -44.67,45.05 -25.24,0 -45.21,-20.19 -45.21,-45.05 0,-24.7 19.98,-44.98 45.21,-44.98zm-1414.69 -16.19c26.25,0 47.29,21.08 47.29,47.2 0,25.96 -21.04,47.13 -47.29,47.13 -25.78,0 -47.33,-21.17 -47.33,-47.13 0,-26.12 21.54,-47.2 47.33,-47.2zm-372.61 -57.38c28.9,0 52.56,23.44 52.56,52.34 0,28.9 -23.66,52.24 -52.56,52.24 -28.9,0 -52.02,-23.35 -52.02,-52.24 0,-28.9 23.12,-52.34 52.02,-52.34zm1661.17 -128.5c24.7,0 45.18,20.1 45.18,44.96 0,24.82 -20.48,44.95 -45.18,44.95 -24.71,0 -44.67,-20.13 -44.67,-44.95 0,-24.86 19.97,-44.96 44.67,-44.96zm-7287.86 -179.91c-34.73,0 -90.23,62.2 -112.95,100.03 67.87,-0.5 96,69.47 96,69.47 106.22,263.14 45.3,674.9 -217.8,808.41 -21.55,11.03 -54.3,-6.81 -54.3,-6.81l-93.38 -62.56c-4.42,17.35 17.29,156.6 73.78,199.7 56.47,43.63 126.23,-4.2 126.23,-4.2 533.91,-474.48 282.44,-1056.34 260.71,-1073.7 -21.76,-17.38 -43.57,-30.34 -78.3,-30.34zm1130.38 -1513.15c0,0 -26.03,117.36 -134.81,256.52 -108.62,139.09 -317.3,243.35 -417.31,252.19 -86.85,7.47 -108.78,-39.15 -108.78,-39.15l-34.73 -87.01c0,13.19 -108.59,247.87 73.95,230.33 524.57,-49.93 682.54,-495.45 682.54,-495.45l-60.86 -117.43zm5214.18 -433.97c0,0 -13.15,26.24 -16.28,32.52 -31.54,83.35 -54.67,273.7 -77.79,331.34 -27.32,67.48 -155.57,235.98 -276.43,458.33 0,0 26.82,-154.99 33.64,-215.69 6.85,-60.7 100.89,-175.16 155.03,-262.76 47.82,-77.36 141.36,-263.42 165.55,-311.22 5.24,-13.98 10.51,-25.74 16.28,-32.52zm-943.3 -40.35c26.78,20.13 114.54,33.7 255.91,161.71 95.11,85.91 113.51,83.6 116.16,72.94 -0.54,-3.63 -1.08,-10.01 -1.58,-12.3 0,0 2.62,7.1 1.58,12.3 5.24,38.52 5.78,142.47 12.08,210.11 0,0 -100.89,-94.39 -155.02,-195.5 -54.14,-101.18 -229.13,-249.26 -229.13,-249.26zm-621.68 -112.25c280.62,0.64 475.04,166.16 540.76,206.57 87.74,53.98 330.02,437.85 377.31,518.84 47.29,80.82 161.87,249.38 161.87,249.38 0,0 -410.97,-431.32 -546.03,-599.88 -134.51,-168.4 -464.57,-262.66 -613.28,-269.38 -148.18,-6.79 -471.38,141.39 -471.38,141.39 -289.76,67.48 -350.36,-87.54 -350.36,-87.54 168.53,94.33 228.97,47.19 303.08,33.69 6.31,-1.17 8.38,-1.04 10.51,-1.17 14.19,-9.4 73.03,-39.34 279.57,-126.85 110.89,-47.2 214.4,-65.27 307.97,-65.06zm-1608.29 -2100.02c-63.03,1.04 -155.72,31.1 -196.98,37.98 -54.87,9.15 -402.58,187.64 -416.31,210.52 -13.73,22.84 -164.74,100.51 -233.32,141.65 -68.59,41.32 -297.55,393.52 -297.55,393.52 -9.15,-132.59 219.88,-516.9 219.88,-516.9 -23.09,-18.31 -146.47,-82.5 -292.91,-68.78 -146.48,13.92 -274.5,128.15 -379.8,311.18 -105.15,183.04 -356.71,1107.32 -457.47,1569.43 0,0 0.75,78.08 -12.63,179.19 -13.53,101.1 255.95,666.98 329.99,754.59 74.26,87.6 262.76,101.1 363.87,74.19 101.12,-27.07 269.48,-242.63 229.08,-229.06 -40.41,13.34 -188.66,-27.01 -188.66,-27.01 229.14,-13.34 552.63,-289.73 653.73,-377.34 101.12,-87.54 255.95,-336.83 431.1,-754.68 175.37,-417.63 60.73,-566 53.98,-586.29 -6.78,-20.12 -242.44,20.35 -242.44,20.35 0,0 282.89,-114.46 390.72,-195.44 107.89,-80.82 222.35,-289.67 222.35,-289.67 -6.75,53.98 0.06,195.28 27.12,269.55 26.86,74.04 100.87,87.54 161.56,114.45 60.7,27.07 121.24,107.83 155.06,208.94 33.47,100.95 0,188.56 0,188.56 0,0 -67.48,-175.15 -107.89,-229.07 -40.41,-53.75 -155.02,-60.54 -235.84,-47.04 -80.83,13.34 -235.85,276.04 -323.4,538.96 -87.6,262.76 -404.34,781.56 -464.85,849.04 -60.7,67.32 -391.01,282.82 -411.07,303.11 -20.35,20.28 -155.03,229.13 -209.01,289.89 -53.75,60.47 -222.35,74.04 -289.67,53.76 -67.42,-20.13 -181.87,-67.32 -202.15,-60.54 -20.13,6.72 -262.82,107.73 -437.97,444.72 -175.21,336.96 -242.63,909.58 -242.63,909.58 175.31,-323.45 1037.69,-983.71 1037.69,-983.71 0,0 -639.98,572.75 -983.71,1098.26 -225.1,344.34 -397.5,815.1 -518.74,1306.99 -121.45,491.86 -127.86,1097.79 -54.04,1361.09 25.3,90.38 186.58,275.35 247.33,645.84 60.48,371.03 253.93,583.84 253.93,583.84 94.33,148.72 345.01,214.94 735.4,365.76 646.16,249.64 1350.94,-301.65 1350.94,-301.65 -215.79,-417.79 -694.15,-727.84 -694.15,-727.84 397.5,108.28 801.81,552.84 943.34,687.39 141.52,135.06 417.78,505.55 633.4,687.35 215.57,181.85 552.34,188.66 754.65,141.37 202.32,-46.75 606.44,-208.62 660.05,-275.88 54.13,-67.79 283.26,-330.55 316.89,-357.37 33.63,-26.78 222.29,-168.15 303.23,-208.62 80.92,-40.44 181.81,-54.14 181.81,-54.14 0,0 -148.18,100.93 -235.42,168.72 -87.76,67.26 -161.87,289.54 -161.87,289.54 0,0 114.56,19.97 310.05,19.97 194.97,0 370.5,-183.39 388.89,-238.06 18.39,-55.18 333.71,-553.88 347.38,-576.49 13.65,-23.13 4.73,-55.18 4.73,-55.18 0,0 -41.01,-13.67 -255.95,-13.67 -215.43,0 -457.73,137.17 -457.73,137.17 0,0 45.75,-45.71 105.12,-96.16 59.37,-50.47 279.03,-100.38 397.81,-114.04 119.28,-13.66 311.63,4.2 357.34,8.93 45.75,4.73 223.9,-32.05 279.07,-86.72 54.64,-55.18 251.71,-242.79 242.25,-371 -8.93,-127.7 -120.86,-164.49 -221.24,-183.41 -100.89,-17.86 -299.55,65.17 -299.55,65.17 13.67,9.46 26.82,40.47 35.74,77.26 9.47,36.78 -33.62,39.4 -51.52,39.4 -18.39,0 -83.03,-37.83 -195.47,-53.06 -190.76,-25.78 -347.9,25.21 -581.22,172.88 -118.25,75.15 -322.68,243.33 -495.05,335.3 -196.54,105.08 -501.86,194.42 -827.15,310.58 -491.89,176.04 -740.99,46.22 -740.99,46.22 -55.08,-36.79 -224.17,-87.24 -247.05,-338.95 -38.99,-426.71 -100.79,-558.11 -100.79,-558.11 -18.3,22.63 -132.53,238.06 -132.53,238.06 4.42,-91.96 118.87,-407.24 178.31,-503.43 59.59,-96.16 402.45,-617.48 494.41,-755.16 91.43,-137.16 608.56,-1006.37 608.56,-1006.37 -173.95,18.39 -540.25,379.42 -540.25,379.42 352.63,-690.55 1098.33,-667.42 1098.33,-667.42 439.32,27.32 745.71,173.42 1061.54,100.38 530.25,-122.97 388.89,-526.15 388.89,-526.15 -55.18,-224.14 -476.12,-334.02 -553.89,-356.86 -77.79,-22.88 -352.1,-22.94 -384.14,-160.23 -32.06,-137.1 20.47,-254.24 121.4,-325.57 98.77,-70.2 458.23,-43.73 458.23,-43.73 0,0 57.29,8.43 92.49,-5.83 400.97,-54.86 534.45,48.93 592.78,79.84 54.14,28.74 135.05,102.79 121.39,181.09 -8.93,49.72 -87.22,132.53 -256.45,283.55 -169.22,151.05 -128.21,356.89 -123.48,407.19 4.73,50.28 55.18,114.51 151.33,178.52 95.65,63.95 279.04,183.07 461.92,91.43 182.89,-91.43 178.15,-260.74 155.57,-462.08 -23.13,-201.34 -260.65,-603.98 -320.02,-686.29 -59.91,-82.43 -311.66,-128.17 -311.66,-128.17 -49.91,-9.12 -411.48,-27.42 -617.48,-18.27 -206.01,9.15 -379.42,64.05 -461.92,91.43 -82.5,27.63 -444.07,251.84 -773.05,604.2 -329.48,352.13 -673.19,443.68 -673.19,443.68 82.53,-36.72 352.64,-182.97 503.47,-366.01 150.83,-183.04 590.16,-558.27 782.48,-723.01 192.34,-164.74 960.65,-150.99 960.65,-150.99 -166.06,-42.78 -278.53,-70.98 -585.43,-45.77 -155.03,12.83 -640.6,173.95 -741.49,219.67 -100.38,45.87 -603.82,384.37 -681.61,439.39 -77.77,54.86 -873.77,850.74 -873.77,850.74l782.34 -915.01c0,0 -105.11,64.26 -507.66,219.67 -402.7,155.59 -1025.1,183.03 -1025.1,183.03 411.79,-64 1020.4,-256.26 1226.38,-343.26 205.5,-86.82 1056.84,-580.82 1056.84,-580.82 -137.17,-36.79 -841.88,36.53 -841.88,36.53 105.09,-64.17 475.58,-146.47 475.58,-146.47 -27.32,-32 -118.77,-205.95 -118.77,-324.97 0,-118.81 68.84,-333.87 68.84,-333.87 -18.39,-22.84 -151.33,-87 -306.9,-82.43 -155.55,4.58 -334.21,13.73 -416.21,-22.87 -82.5,-36.57 -132.94,-128.02 -132.94,-128.02 78.3,54.87 155.53,59.43 251.73,59.43 96.15,0 96.15,-9.08 229.13,-36.49 132.41,-27.67 397.81,45.58 457.18,73.03 59.38,27.45 165.03,96.29 288.51,142 123.51,45.68 489.27,210.45 580.7,256.2 91.96,45.65 141.9,27.32 173.95,13.6 32.05,-13.73 109.85,-73.16 155.56,-100.58 46.25,-27.61 105.62,-160.14 393.62,-219.51 288.51,-59.65 388.86,-393.55 388.86,-393.55 0,13.69 -4.2,141.68 -49.91,233.32 -45.71,91.4 -146.63,183.07 -146.63,183.07l0 13.69c0,13.69 45.74,178.47 27.35,265.31 -70.95,335.86 -270.14,343.21 -270.14,343.21 32.08,0 173.95,54.9 288.53,109.75 114.55,55.02 164.49,41.23 164.49,41.23 0,0 -45.74,-23 -73.07,-370.65 -27.32,-347.78 187.62,-690.89 210.74,-745.75 22.59,-54.87 100.38,-164.74 -32.05,-320.36 -132.98,-155.38 -366.3,-205.95 -503.43,-201.37 -137.71,4.57 -480.35,352.35 -480.35,352.35 40.98,-96 251.72,-375.16 251.72,-375.16 0,0 -141.88,-59.47 -311.63,-201.37 -168.69,-141.68 -411.47,-535.13 -457.18,-603.92 -45.71,-68.58 -256.46,-269.86 -398.35,-320.14 -141.9,-50.47 -379.42,-4.57 -379.42,-4.57 0,0 36.24,50.35 59.37,114.29 23.13,64.2 164.49,219.54 164.49,219.54 -54.64,-13.69 -132.41,-63.95 -191.81,-105.09 -59.37,-41.14 -156.07,-201.34 -256.45,-256.19 -100.39,-55.03 -493.97,-73.32 -526.02,-64.17 -32.12,9.15 -82.37,18.3 -64.07,64.17 18.3,45.7 270.05,338.44 270.05,338.44 -68.84,-41.14 -265.54,-192.13 -370.84,-297.3 -105.15,-105.31 -365.86,-507.95 -439.02,-649.69 -73.32,-141.88 -132.82,-169.28 -178.68,-201.28 -11.45,-8.04 -29.13,-10.91 -50.07,-10.56l0 0zm3028.76 -31.61c-81.46,-4.19 -160.3,20.28 -211.78,44.77 -83.03,39.12 -204.43,221.78 -287.46,373.9 -82.5,152.12 -191.31,321.63 -373.65,425.89 0,0 139.24,117.39 178.14,165.31 39.44,47.73 178.15,234.74 178.15,234.74 26.28,-39.15 130.86,-65.27 130.86,-65.27 -56.76,47.89 -83.03,156.5 -83.03,156.5l4.73 4.42c4.19,4.42 82.5,147.74 82.5,147.74 17.35,-4.42 82.53,-60.92 152.41,-339.08 69.37,-278.28 347.36,-425.99 399.38,-459.3 52.57,-33.29 56.76,-53.73 26.28,-88.46 -30.48,-34.73 -191.27,26.19 -191.27,26.19 356.3,-260.93 925.96,-73.95 925.96,-73.95 -78.3,-8.77 -221.78,21.62 -221.78,21.62 38.89,13.12 269.61,204.43 482.42,430.44 213.37,226.03 595.94,382.54 639.03,373.9 43.63,-8.77 48.36,-87.01 22.08,-134.74 -26.27,-47.92 -359.45,-253.45 -495.57,-400.06 -157.65,-169.53 -404.64,-543.28 -591.21,-647.71 -197.08,-109.88 -371.54,-101.84 -487.16,-78.61 -125.05,25.05 -334.75,161.23 -334.75,161.23 74.11,-156.5 200.24,-234.71 200.24,-234.71 -45.71,-29.38 -95.66,-42.24 -144.52,-44.77l0 0z"/>
  <path class="fil5" d="M16399.41 15865.15l-1220.23 11.05 2.08 71.99c218.09,-2.62 217.05,26.78 220.71,140.33l33.12 1024.22c3.69,112.98 6.81,142.4 -214.43,154.49l2.65 72c107.2,-8.4 213.89,-14.7 321.1,-22.59 107.73,-4.2 214.93,-10.51 322.13,-14.7l-2.62 -69.91c-221.24,12.08 -220.21,-17.35 -223.9,-129.79l-17.86 -503.97 176.57 -6.31c271.69,-8.93 212.85,44.67 246.49,203.89l99.85 -4.2 -20.51 -491.35 -98.81 2.08c7.89,199.19 -25.74,212.84 -229.63,219.15l-176.07 5.78 -20.47 -575.97 379.95 -4.2c285.85,-3.16 286.92,18.89 315.83,277.46l119.81 -2.62 -15.77 -356.84zm-3104.78 -2113.12c-26.92,4.74 -181.94,92.5 -498.68,168.72 -422.73,101.93 -708.62,-104.07 -708.62,-104.07 87.61,92.49 53.98,310.07 42.12,360.52 -11.74,50.44 -139.85,175.5 -181.91,198.62 -42.02,23.66 -77.5,38.9 -131.27,42.06 -171.68,11.03 -261.12,-70.41 -261.12,-70.41l-114.68 42.05c0,0 341.76,289.54 661.52,445.11 424.42,206.51 947.72,366.27 947.72,366.27 0,0 -116.88,-267.49 -141.58,-283.23 -24.7,-15.78 -94.11,-80.42 -107.68,-129.82 -12.77,-47.29 -35.99,-154.49 -35.99,-224.91 0,-22.62 56.12,-112.46 56.12,-112.46 78.61,-91.96 256.2,-233.33 611.14,-213.35 384.73,22.05 614.17,312.66 626.6,327.9 17.95,22.62 40.41,85.69 42.59,117.2 2.2,31.02 -6.79,253.3 -89.82,336.87 -83.19,83.03 -240.36,114.54 -240.36,114.54l-159.51 201.81c0,0 485.17,60.95 1064.8,-6.85 579.34,-67.27 961.37,-287.46 961.37,-287.46 -45.17,-94.05 -191.27,-159.22 -191.27,-159.22 -15.77,6.84 -98.81,24.7 -155.02,-17.86 -56.25,-42.59 -60.44,-103.54 -60.44,-103.54 2.11,-262.76 215.46,-298.51 260.64,-305.32 44.68,-6.84 91.97,4.19 127.71,36.25 60.44,52.56 78.84,149.78 78.84,149.78 183.93,103.51 251.72,265.38 251.72,265.38 310.05,-74.11 734.14,-465.07 734.14,-465.07l-13.13 0c-13.65,0 -114.58,67.8 -198.12,54.1 -83.03,-13.66 -125.63,-49.37 -138.74,-63.06 -13.67,-13.67 -94.59,-65.15 -155.03,-148.18 -60.95,-83.03 6.31,-258.03 6.31,-258.03l-522.9 226.48c0,0 -474,238.6 -849.23,121.4 -374.97,-116.67 -489.58,-366.27 -550.28,-406.75 -60.53,-39.94 -356.45,-75.68 -538.39,-78.3 -181.93,-2.08 -429.58,-137.17 -429.58,-137.17zm3959.82 -95.61c-39.94,-1.58 -100.93,9.46 -186.58,57.26 0,0 76.19,29.43 96.7,49.93 19.97,19.97 40.47,65.15 40.47,65.15 80.92,-58.84 105.62,-141.87 107.74,-157.64 0,0 -18.39,-13.13 -58.33,-14.7zm-7092.91 -1415.76c0,0 44.99,206.54 85.4,303.23 40.41,96.69 112.25,273.8 219.92,505.55 107.89,231.21 487.51,752 487.51,752 -49.34,-91.97 -27.1,-312.16 -2.25,-363.65 42.97,-89.87 74.14,-107.73 166.32,-172.88 86.81,-61.49 148.4,-56.25 148.4,-56.25 0,0 0.75,-11.55 -15.9,-51.48 -49.57,-116.66 -65.27,-301.13 -103.49,-491.89 -38.01,-191.31 -134.54,-347.91 -134.54,-347.91 0,0 -36.1,103 -47.45,127.71 -11.14,24.7 -56.12,56.25 -56.12,56.25 0,0 -226.67,46.75 -312.01,37.83 -85.4,-8.93 -159.5,-62.54 -190.92,-85.15 -31.49,-22.59 -105.52,-190.74 -105.52,-190.74l-139.36 -22.62 0 0zm4651.44 -384.16c-104.42,-1.04 -138.72,21.54 -173.32,43.63 -39.47,25.75 -136.03,108.78 -163.67,169.72 0,0 35.72,301.66 35.72,326.9 0,0 149.72,6.31 208.78,87.22 59.02,80.42 63.03,181.31 59.02,210.75 0,0 90.76,-10 140.17,13.66 49.4,23.63 131.9,86.69 131.9,86.69 5.77,-45.18 97.74,-278 156.06,-295.32 45.21,-14.19 137.71,56.76 151.37,65.14 0,0 132.43,-232.78 94.58,-469.27 -37.29,-236.48 -147.67,-199.19 -179.19,-209.16 0,0 -118.24,5.78 -155.55,29.44 0,0 80.41,185.5 114.04,246.45 33.62,61.48 29.94,132.43 27.86,141.9 -2.12,9.96 -106.69,-214.44 -141.9,-254.38 -35.74,-39.4 -112.47,-181.3 -256.46,-191.27 -17.85,-1.04 -34.16,-1.57 -49.4,-2.11zm-3704.1 -4264.04c0,0 -382.48,530.44 -478.13,686.96 -95.59,156.57 -495.48,1038.95 -495.48,1038.95 0,0 482.52,-108.59 491.1,-147.73 8.76,-39.09 91.36,-139.17 117.32,-156.48 26.12,-17.42 52.34,-21.76 78.3,-21.76 26.12,0 160.87,25.9 213.01,39.08 52.27,13 65.27,56.57 65.27,56.57 265.12,578.17 -152.16,1125.71 -286.9,1190.85 -56.13,27.32 -117.35,8.94 -117.35,8.94 0,0 -100.01,0 -208.62,-69.88 -108.84,-69.38 -91.43,-278 -91.43,-278l-356.39 -243.48c-95.65,404.28 -130.36,1386.98 8.61,1978.21l147.93 -117.19c-8.77,-95.66 121.58,-278.54 165.12,-313.21 43.51,-35.21 265.13,-82.5 325.99,-65.18 60.88,17.35 204.45,212.85 204.45,212.85 30.39,-430.4 153.05,-885.51 195.66,-1038.95 80.1,-290.08 236.57,-619.91 243.36,-634.86 78.27,-173.7 91.23,-386.97 91.23,-386.97 8.77,-547.63 308.63,-947.56 334.81,-1008.45 26.15,-60.85 404.28,-395.67 404.28,-395.67l-43.53 -56.43c-78.24,178.24 -334.63,412.98 -656.48,460.72 -27.22,4.03 -99.85,4.41 -99.85,4.41 0,0 -82.6,-34.73 -160.86,-143.35 -78.24,-108.81 30.38,-300.02 30.38,-300.02l-121.81 -299.93zm704.31 -652.17c0,0 -278.29,191.21 -347.75,273.86l365.1 86.91c0,0 -52.08,-152.25 -39.12,-221.71 13.19,-69.47 21.78,-139.06 21.78,-139.06z"/>
  <path class="fil6" d="M15414.66 15246.62l-100.39 36.79 52.56 116.67 106.16 -18.39c-18.39,-29.44 -58.33,-135.06 -58.33,-135.06l0 0zm261.18 -111.96l-158.71 66.22c0,0 26.28,127.17 53.1,161.87 0,0 55.18,2.12 108.24,0 29.43,-63.6 -2.62,-228.09 -2.62,-228.09zm-2196.02 -299.54c34.73,15.24 175.71,49.94 164.74,129.82 -8.24,61.99 -279.49,527.1 -279.49,527.1 0,0 163.45,-368.92 168.91,-459.84 6.63,-104.04 -54.16,-197.08 -54.16,-197.08zm2073.05 -168.15c-32.05,0 -63.6,11.05 -71.99,49.91 -7.89,37.32 4.19,60.98 21,74.11 50.45,39.94 196.04,119.81 254.38,307.43 58.32,187.61 -18.39,463 -50.48,537.07 -31.51,74.11 34.71,108.81 108.81,55.71 74.08,-53.06 139.79,-373.11 97.73,-606.44 -64.64,-355.79 -288.5,-402.01 -288.5,-402.01 -7.89,-5.26 -39.43,-16.31 -70.95,-15.77l0 0zm-2143.69 -0.54c-181.94,-4.73 -335.16,37.32 -388.58,170.8 -17.91,44.68 0,96.16 0,96.16 24.71,60.98 258.19,667.42 262.76,685.28 4.58,17.88 26.85,89.87 56.13,49.4 16.81,-23.63 395.35,-611.18 404.35,-635.88 8.92,-24.7 68.93,-119.81 40.41,-179.73 -24.71,-51.48 -193.13,-181.84 -375.07,-186.03zm-61.64 -373.11c-272.26,9.46 -447.85,182.89 -477.32,235.94 -33.66,60.99 2.21,143.48 2.21,143.48 29.22,-67.27 181.88,-305.32 563.66,-271.69 381.79,33.63 547.95,285.35 572.81,359.46 24.7,74.11 13.4,139.26 6.78,166.06 0,0 58.4,-161.33 33.7,-238.05 -24.86,-76.23 -238.02,-338.98 -579.4,-388.35 -42.72,-6.31 -83.54,-8.43 -122.43,-6.85zm3360.95 -273.81c0,0 38.37,127.71 65.15,157.14 27.34,29.44 391,260.65 391,260.65 0,0 -458.26,-175.5 -480.85,-199.7 -22.59,-24.7 -49.41,-52.02 -35.74,-96.7 13.66,-45.17 60.44,-121.4 60.44,-121.4l0 0zm-312.16 -67.79c2.61,-4.2 -137.17,47.32 -137.17,47.32 0,0 -57.8,155.02 -35.74,218.09 22.62,63.07 114.58,127.67 114.58,127.67 -26.82,-74.07 -33.64,-152.37 -17.86,-222.28 15.74,-69.38 74.07,-166.07 76.19,-170.8l0 0zm-4902.9 -28.9c0,0 78.65,141.37 67.35,195.51 -11.19,53.59 -548.01,227.01 -548.01,227.01 0,0 309.86,-179.72 384.06,-242.79 74.11,-63.06 96.6,-179.73 96.6,-179.73l0 0zm5525.28 -148.18c-202.32,197.58 -310.05,190.76 -402.02,202.32 0,0 -39.94,60.44 -49.4,98.81 -17.89,71.99 -19.97,152.37 2.07,199.69 22.63,47.29 78.84,69.38 78.84,69.38 0,0 570.19,220.17 626.41,235.94 56.25,15.77 36.28,-24.7 36.28,-24.7 0,0 -177.64,-698.4 -197.61,-738.87 -20.48,-40.47 -94.58,-42.56 -94.58,-42.56l0 0zm-5201.69 -58.33c0,0 74.01,91.96 136.91,208.62 62.9,117.2 20.13,346.3 20.13,346.3 247.2,-240.68 4.6,-498.7 4.6,-498.7l-161.64 -56.22 0 0zm-612.95 -88.3c-20.09,1.04 -31.74,2.62 -31.74,2.62 -33.66,8.95 -56.09,13.65 -67.22,42.58 -11.36,29.43 -269.76,779.86 -276.33,788.78 -6.79,8.93 -27.01,63.06 38.1,40.47 65.27,-22.59 754.68,-246.99 754.68,-246.99 0,0 62.9,-38.36 83.03,-85.68 20.29,-47.29 33.85,-246.99 -179.73,-428.8 -124.64,-106.16 -260.64,-115.12 -320.81,-113zm94.01 -345.26c-24.7,0 -136.95,4.19 -208.78,96.69 0,0 246.99,0 352.67,74.11 0,0 -99.12,-137.71 -108.11,-146.63 -8.93,-8.92 -35.78,-24.16 -35.78,-24.16zm3545.51 -526.06c-25.24,1.57 -49.94,5.8 -67.89,11.05 -35.27,9.46 -139.84,134.01 -159.6,191.3 0,0 -5.84,21.55 9.87,43.09 15.71,21.55 65.12,86.7 210.77,112.44 146.1,25.78 187.08,-2.08 187.08,-2.08 4.23,-19.46 4.23,-230.7 -3.66,-260.14 -7.89,-29.43 -76.73,-75.14 -110.35,-88.8 -16.82,-6.85 -41.52,-8.42 -66.22,-6.85l0 0zm401.47 -186.03c-13.65,-2.08 -106.66,131.93 -106.66,262.25 0,129.78 63.06,268 63.06,268 49.41,-14.2 290.08,-49.41 346.83,-96.7 0,0 -15.77,-212.82 -111.92,-303.73 -96.7,-90.39 -177.64,-128.25 -191.31,-129.82l0 0zm-719.09 -117.16c-7.38,0 -12.31,0.5 -12.31,0.5 0,0 15.71,275.91 39.31,323.74 23.6,46.75 59.12,3.66 68.99,-2.11 9.85,-5.78 88.87,-80.92 94.71,-104.58 5.87,-23.66 0,-161.87 -76.98,-189.19 -76.79,-27.86 -66.98,-21.54 -86.72,-25.75 -9.78,-2.11 -19.59,-2.61 -27.01,-2.61l0 0zm3980.46 -26.82c-16.29,28.39 -107.21,204.43 -110.86,218.62 0,0 240.67,-4.19 260.64,-7.88 20.51,-4.2 18.4,-16.29 10.51,-24.17 -8.39,-8.43 -160.29,-186.57 -160.29,-186.57zm-2016.94 -109.32c-65.14,2.66 -130.83,12.62 -130.83,12.62 9.97,23.66 25.75,228.6 17.86,275.91l384.69 -238.59c0,0 -132.44,-43.09 -209.16,-48.87 -19.47,-1.57 -41.01,-1.57 -62.56,-1.07l0 0zm740.99 -314.78c-22.09,-1.58 -39.95,6.31 -39.95,6.31 -118.24,37.32 -183.41,271.69 -183.41,271.69 12.12,-3.66 177.64,-66.72 307.43,-82.5 0,0 22.09,-80.92 -15.74,-149.79 -18.39,-34.67 -45.75,-44.68 -68.33,-45.71l0 0zm-6698.24 -107.73c20.12,49.4 2.21,190.76 -49.35,218.08 -15.55,7.89 -590.79,-52.02 -590.79,-52.02 0,0 408.86,-24.7 496.46,-54.14 109.5,-36.24 143.67,-111.92 143.67,-111.92l0 0zm-147.23 -395.17c-22.09,-1.58 -38.59,2.08 -45.9,6.28 -29.25,17.89 -615.47,519.21 -655.88,557.06 -40.41,38.37 4.54,49.41 22.47,51.5 0,0 790.58,141.9 871.4,108.27 39.12,-16.31 134.77,-188.65 51.74,-463 -62.4,-205.46 -177.74,-255.41 -243.87,-260.1l0.04 0zm5650.86 -255.41c-18.89,2.62 -40.97,11.55 -65.68,29.43 -98.27,70.92 -408.32,551.77 -449.3,887.05 -41.52,334.76 43.6,481.39 80.92,557.57 64.64,131.91 119.81,147.68 189.19,181.3 228.59,-65.14 480.84,-226.47 480.84,-226.47 0,0 19.97,-264.34 -55.18,-412.01 -75.18,-148.22 -118.24,-204.97 -121.93,-222.83 0,0 -25.74,137.67 -25.74,189.19 0,0 -55.71,-280.11 13.66,-579.65 68.84,-299.55 45.18,-321.09 43.1,-346.84 -1.58,-19.43 -32.59,-65.18 -89.88,-56.75zm-5403.33 -25.75c-6.91,-0.54 -12.94,-0.54 -17.48,0 -17.92,2.08 -166.16,38.37 -166.16,38.37 47.2,4.73 328.09,103.51 384.22,534.45 56.12,431.45 -51.77,622.21 -78.61,658.46l123.32 -11.54c0,0 18.04,-11.05 38.32,-42.59 20.29,-31.52 65.06,-109.81 60.64,-128.21l-4.61 -17.88c0,0 -79.72,-168.69 -91.99,-379.43 -11.14,-188.65 -2.37,-359.45 -2.37,-359.45 0,0 -152.66,-244.87 -177.36,-267.46 -18.48,-16.84 -47.16,-23.65 -67.92,-24.7l0 0zm6819.09 -90.92c-7.89,-0.54 -13.15,4.19 -10.5,19.97 5.77,40.99 45.17,332.64 66.72,395.7 21.54,63.06 25.24,205.48 -7.89,292.19 0,0 -2.08,-77.25 -12.08,-110.89 0,0 -88.27,100.89 -106.15,282.19 0,0 15.77,151.91 7.89,192.88 0,0 66.75,14.2 86.72,25.75 0,0 220.71,-155.57 376.26,-147.68 0,0 69.38,-262.22 -1.58,-449.29 -70.95,-187.62 -171.84,-309.55 -201.27,-351.06 -37.86,-52.56 -155.57,-128.21 -155.57,-128.21 -7.35,-4.74 -28.89,-20.51 -42.56,-21.55l0 0zm-557.06 -919.14c-23.13,0 -115.59,10.51 -115.59,10.51 4.7,54.14 71.99,163.45 110.35,182.37 15.24,7.86 25.74,7.86 36.25,2.62 10,-5.26 15.24,-31.01 20.51,-58.87 4.73,-28.36 35.7,-120.86 35.7,-120.86 0,0 -64.1,-15.77 -87.22,-15.77zm-496.08 -15.24c-5.78,25.75 7.34,77.27 22.58,108.24 26.82,53.09 69.91,99.88 105.66,115.63 15.74,6.84 36.24,-17.86 36.24,-28.37 0,-10 20.51,-115.62 43.63,-141.36 23.13,-25.77 33.1,-38.9 33.1,-38.9l-241.21 -15.24zm-389.4 -63.6c-54.66,3.16 -108.27,19.97 -140.86,66.22 -66.73,95.11 82.52,346.84 123.51,391.01 41.51,43.6 79.34,64.1 157.14,64.1 25.74,0 40.98,-66.75 43.6,-103 0,0 -7.89,-112.97 -13.12,-184.97 -4.74,-72.03 33.62,-159.25 33.62,-169.76 0,-10 -2.62,-28.39 -2.62,-28.39 -12.62,-4.7 -109.3,-39.4 -201.27,-35.2zm2134.64 -124.55c-23.12,-1.05 -46.75,1.57 -58.33,3.16 -23.63,2.65 -100.39,25.77 -100.39,25.77 0,0 -25.74,20.47 -30.98,40.98 -5.27,20.5 -31.01,259.6 23.13,326.33 0,0 59.37,69.9 164.49,-79.35 105.62,-149.25 74.61,-277.99 56.75,-301.12 -8.96,-11.55 -31.54,-15.24 -54.67,-15.77l0 0zm-402.02 -33.1c-15.24,0.54 -27.32,2.11 -34.7,5.26 0,0 -7.35,108.24 0,133.99 7.89,25.77 38.36,66.75 77.25,61.48 38.37,-5.23 130.86,-154.49 97.77,-174.99 -25.24,-15.24 -95.15,-26.28 -140.33,-25.74zm-7659.93 -391.51c0,0 416.52,144.4 468.45,138.78 51.92,-5.52 66.72,-19.21 66.72,-19.21 0,0 -35.08,81.39 -56.47,106.25 -21.54,24.86 -34.07,32.75 -63.35,23.6 -29.4,-8.93 -415.35,-249.42 -415.35,-249.42zm591.51 -365.7l-824.99 225.38c-27.26,7.16 -45.3,13.94 -3.63,47.73 33.47,27.07 691.65,489.36 707.92,495.64 16.81,6.85 28.24,-2.08 43.94,-12.59 178.47,-165.75 246.11,-479.56 135.47,-728.05 -13.5,-30.32 -41.36,-28.11 -58.68,-28.11l-0.04 0zm278.85 -145.62c0,0 140.96,222.29 40.36,619.78 -94.34,372.89 -238,455.92 -345.89,527.95 0,0 70.89,19.97 96.69,19.97 31.42,0 55.8,-12.62 60.53,-17.88 38.21,-40.45 240.27,-255.91 301.19,-545.68 67.64,-323.84 -15.93,-453.68 -49.62,-554.79 -6.72,-20.13 -17.92,-29.27 -29.21,-33.69 -11.19,-4.58 -74.05,-15.65 -74.05,-15.65zm6012.97 -295.13c-48.87,-2.02 -92.5,3.41 -118.24,4.92 -79.88,4.95 -124.55,82.53 -132.44,145.95 -7.89,66.21 74.11,131.08 148.72,126.85 22.59,-1.05 87.22,-9 102.46,-20.29 24.2,-17.76 78.3,-43.12 107.23,-54.25 61.99,-23.82 63.06,-20.45 129.79,-29.82 29.43,-4.01 98.81,9.31 108.77,-20.54 10.51,-32.17 -26.78,-51.13 -75.15,-75.11 -40.97,-20.48 -81.96,-38.77 -121.9,-49.41 -41.52,-11.13 -55.18,-16.44 -98.27,-23.38 -17.35,-2.71 -34.17,-4.26 -50.98,-4.92zm-982.2 -831.91c-8.93,37.48 10.51,133.33 31.55,140.83 21.01,7.54 29.94,-17.85 34.67,-31.42 4.19,-13.5 0,-82.28 0,-82.28l-66.22 -27.13zm1073.62 -7.76l-68.29 66.79c0,0 -5.27,78.2 22.59,83.12 27.86,4.95 36.78,-30.53 40.47,-50.5 8.39,-42.4 5.23,-99.41 5.23,-99.41zm-1347.42 -156.66c-46.76,128.02 -87.23,424.56 121.39,606.5 0,0 623.29,25.21 805.09,-21.99 0,0 44.17,-79.12 37.33,-112.97 -6.85,-33.62 -33.63,-107.73 -94.58,-134.74 -38.35,-17.04 -37.32,-24.29 -302.7,-53.73 0,0 13.13,222.25 -155.56,262.67 0,0 -94.08,0.06 -141.36,-47.07 -46.79,-47.19 -100.89,-222.35 -67.26,-377.43l-202.35 -121.24 0 0zm1775.72 -23.7c0,0 -141.37,22.02 -242.77,55.65 0,0 57.26,257.81 -104.07,399.33 0,0 -107.73,89.25 -182.34,-27.07 -52.56,-82.66 -31.55,-121.24 -31.55,-121.24 0,0 -55.69,40.41 -62.53,114.45 -6.81,74.21 47.29,128.19 74.11,141.53 26.81,13.57 269.57,0 269.57,0 0,0 142.95,-20.13 230.71,-168.44 87.76,-148.3 62.56,-326.76 48.87,-394.21zm-5441.2 -26.81c0,0 -34.77,130.38 -252.2,304.21 -251.78,201.56 -517.31,178.31 -517.31,178.31l91.3 78.2c530.44,-95.59 730.36,-478.26 730.36,-478.26l-52.14 -82.46zm-882.48 -347.85c0,0 247.77,326.05 291.28,356.36 43.51,30.56 100.07,21.8 100.07,21.8 0,0 -47.92,65.27 -117.41,73.88 -69.47,8.77 -60.89,-8.68 -91.21,-34.77 -30.54,-25.96 -182.72,-417.28 -182.72,-417.28zm-163.51 -236.89c-11.39,1.11 -16.76,8.68 -5.87,32.59 21.58,47.86 321.6,769.45 321.6,769.45 0,0 17.41,52.02 78.33,47.83 60.67,-4.35 408.35,-95.59 517.19,-508.64l-39.15 -95.6 -830.21 -239.06c-13.09,-2.14 -30.53,-7.64 -41.89,-6.56z"/>
 </g>
</svg>
